<mxfile host="Electron" agent="Mozilla/5.0 (Windows NT 10.0; Win64; x64) AppleWebKit/537.36 (KHTML, like Gecko) draw.io/28.1.2 Chrome/138.0.7204.243 Electron/37.4.0 Safari/537.36" version="28.1.2">
  <diagram name="第 1 页" id="sogPoYRCCqrf2yBT6HBB">
    <mxGraphModel dx="1929" dy="1146" grid="1" gridSize="10" guides="1" tooltips="1" connect="1" arrows="1" fold="1" page="1" pageScale="1" pageWidth="827" pageHeight="1169" math="0" shadow="0">
      <root>
        <mxCell id="0" />
        <mxCell id="1" parent="0" />
        <mxCell id="g_lak4xknPb3sHyO11MJ-3" value="" style="swimlane;startSize=0;" parent="1" vertex="1">
          <mxGeometry x="80" y="70" width="630" height="210" as="geometry">
            <mxRectangle x="100" y="70" width="50" height="40" as="alternateBounds" />
          </mxGeometry>
        </mxCell>
        <mxCell id="g_lak4xknPb3sHyO11MJ-16" style="edgeStyle=orthogonalEdgeStyle;rounded=0;orthogonalLoop=1;jettySize=auto;html=1;exitX=0.5;exitY=1;exitDx=0;exitDy=0;entryX=0.5;entryY=0;entryDx=0;entryDy=0;" parent="g_lak4xknPb3sHyO11MJ-3" source="g_lak4xknPb3sHyO11MJ-2" target="g_lak4xknPb3sHyO11MJ-5" edge="1">
          <mxGeometry relative="1" as="geometry" />
        </mxCell>
        <mxCell id="g_lak4xknPb3sHyO11MJ-2" value="A req" style="rounded=1;whiteSpace=wrap;html=1;" parent="g_lak4xknPb3sHyO11MJ-3" vertex="1">
          <mxGeometry x="30" y="80" width="80" height="30" as="geometry" />
        </mxCell>
        <mxCell id="g_lak4xknPb3sHyO11MJ-4" value="Node Group" style="text;html=1;align=center;verticalAlign=middle;whiteSpace=wrap;rounded=0;" parent="g_lak4xknPb3sHyO11MJ-3" vertex="1">
          <mxGeometry x="10" y="20" width="60" height="30" as="geometry" />
        </mxCell>
        <mxCell id="g_lak4xknPb3sHyO11MJ-17" style="edgeStyle=orthogonalEdgeStyle;rounded=0;orthogonalLoop=1;jettySize=auto;html=1;exitX=1;exitY=0.5;exitDx=0;exitDy=0;entryX=0;entryY=0.5;entryDx=0;entryDy=0;" parent="g_lak4xknPb3sHyO11MJ-3" source="g_lak4xknPb3sHyO11MJ-5" target="g_lak4xknPb3sHyO11MJ-6" edge="1">
          <mxGeometry relative="1" as="geometry">
            <Array as="points">
              <mxPoint x="120" y="145" />
              <mxPoint x="120" y="95" />
            </Array>
          </mxGeometry>
        </mxCell>
        <mxCell id="g_lak4xknPb3sHyO11MJ-5" value="A wait" style="rounded=1;whiteSpace=wrap;html=1;" parent="g_lak4xknPb3sHyO11MJ-3" vertex="1">
          <mxGeometry x="30" y="130" width="80" height="30" as="geometry" />
        </mxCell>
        <mxCell id="g_lak4xknPb3sHyO11MJ-18" style="edgeStyle=orthogonalEdgeStyle;rounded=0;orthogonalLoop=1;jettySize=auto;html=1;exitX=0.5;exitY=1;exitDx=0;exitDy=0;entryX=0.5;entryY=0;entryDx=0;entryDy=0;" parent="g_lak4xknPb3sHyO11MJ-3" source="g_lak4xknPb3sHyO11MJ-6" target="g_lak4xknPb3sHyO11MJ-7" edge="1">
          <mxGeometry relative="1" as="geometry" />
        </mxCell>
        <mxCell id="g_lak4xknPb3sHyO11MJ-6" value="B req" style="rounded=1;whiteSpace=wrap;html=1;" parent="g_lak4xknPb3sHyO11MJ-3" vertex="1">
          <mxGeometry x="140" y="80" width="80" height="30" as="geometry" />
        </mxCell>
        <mxCell id="g_lak4xknPb3sHyO11MJ-24" style="edgeStyle=orthogonalEdgeStyle;rounded=0;orthogonalLoop=1;jettySize=auto;html=1;exitX=1;exitY=0.5;exitDx=0;exitDy=0;entryX=0;entryY=0.5;entryDx=0;entryDy=0;" parent="g_lak4xknPb3sHyO11MJ-3" source="g_lak4xknPb3sHyO11MJ-7" target="g_lak4xknPb3sHyO11MJ-8" edge="1">
          <mxGeometry relative="1" as="geometry">
            <Array as="points">
              <mxPoint x="230" y="145" />
              <mxPoint x="230" y="95" />
            </Array>
          </mxGeometry>
        </mxCell>
        <mxCell id="g_lak4xknPb3sHyO11MJ-7" value="B wait" style="rounded=1;whiteSpace=wrap;html=1;" parent="g_lak4xknPb3sHyO11MJ-3" vertex="1">
          <mxGeometry x="140" y="130" width="80" height="30" as="geometry" />
        </mxCell>
        <mxCell id="g_lak4xknPb3sHyO11MJ-25" style="edgeStyle=orthogonalEdgeStyle;rounded=0;orthogonalLoop=1;jettySize=auto;html=1;exitX=0.5;exitY=1;exitDx=0;exitDy=0;entryX=0.5;entryY=0;entryDx=0;entryDy=0;" parent="g_lak4xknPb3sHyO11MJ-3" source="g_lak4xknPb3sHyO11MJ-8" target="g_lak4xknPb3sHyO11MJ-9" edge="1">
          <mxGeometry relative="1" as="geometry" />
        </mxCell>
        <mxCell id="g_lak4xknPb3sHyO11MJ-8" value="C req" style="rounded=1;whiteSpace=wrap;html=1;" parent="g_lak4xknPb3sHyO11MJ-3" vertex="1">
          <mxGeometry x="250" y="80" width="80" height="30" as="geometry" />
        </mxCell>
        <mxCell id="g_lak4xknPb3sHyO11MJ-26" style="edgeStyle=orthogonalEdgeStyle;rounded=0;orthogonalLoop=1;jettySize=auto;html=1;exitX=1;exitY=0.5;exitDx=0;exitDy=0;entryX=0;entryY=0.5;entryDx=0;entryDy=0;" parent="g_lak4xknPb3sHyO11MJ-3" source="g_lak4xknPb3sHyO11MJ-9" target="g_lak4xknPb3sHyO11MJ-10" edge="1">
          <mxGeometry relative="1" as="geometry">
            <Array as="points">
              <mxPoint x="340" y="145" />
              <mxPoint x="340" y="95" />
            </Array>
          </mxGeometry>
        </mxCell>
        <mxCell id="g_lak4xknPb3sHyO11MJ-9" value="C wait" style="rounded=1;whiteSpace=wrap;html=1;" parent="g_lak4xknPb3sHyO11MJ-3" vertex="1">
          <mxGeometry x="250" y="130" width="80" height="30" as="geometry" />
        </mxCell>
        <mxCell id="g_lak4xknPb3sHyO11MJ-27" style="edgeStyle=orthogonalEdgeStyle;rounded=0;orthogonalLoop=1;jettySize=auto;html=1;exitX=0.5;exitY=1;exitDx=0;exitDy=0;entryX=0.5;entryY=0;entryDx=0;entryDy=0;" parent="g_lak4xknPb3sHyO11MJ-3" source="g_lak4xknPb3sHyO11MJ-10" target="g_lak4xknPb3sHyO11MJ-11" edge="1">
          <mxGeometry relative="1" as="geometry" />
        </mxCell>
        <mxCell id="g_lak4xknPb3sHyO11MJ-10" value="D req" style="rounded=1;whiteSpace=wrap;html=1;" parent="g_lak4xknPb3sHyO11MJ-3" vertex="1">
          <mxGeometry x="360" y="80" width="80" height="30" as="geometry" />
        </mxCell>
        <mxCell id="g_lak4xknPb3sHyO11MJ-28" style="edgeStyle=orthogonalEdgeStyle;rounded=0;orthogonalLoop=1;jettySize=auto;html=1;exitX=1;exitY=0.5;exitDx=0;exitDy=0;entryX=0;entryY=0.5;entryDx=0;entryDy=0;" parent="g_lak4xknPb3sHyO11MJ-3" source="g_lak4xknPb3sHyO11MJ-11" target="g_lak4xknPb3sHyO11MJ-12" edge="1">
          <mxGeometry relative="1" as="geometry">
            <Array as="points">
              <mxPoint x="450" y="145" />
              <mxPoint x="450" y="95" />
            </Array>
          </mxGeometry>
        </mxCell>
        <mxCell id="g_lak4xknPb3sHyO11MJ-11" value="D wait" style="rounded=1;whiteSpace=wrap;html=1;" parent="g_lak4xknPb3sHyO11MJ-3" vertex="1">
          <mxGeometry x="360" y="130" width="80" height="30" as="geometry" />
        </mxCell>
        <mxCell id="g_lak4xknPb3sHyO11MJ-29" style="edgeStyle=orthogonalEdgeStyle;rounded=0;orthogonalLoop=1;jettySize=auto;html=1;exitX=0.5;exitY=1;exitDx=0;exitDy=0;entryX=0.5;entryY=0;entryDx=0;entryDy=0;" parent="g_lak4xknPb3sHyO11MJ-3" source="g_lak4xknPb3sHyO11MJ-12" target="g_lak4xknPb3sHyO11MJ-13" edge="1">
          <mxGeometry relative="1" as="geometry" />
        </mxCell>
        <mxCell id="g_lak4xknPb3sHyO11MJ-12" value="E req" style="rounded=1;whiteSpace=wrap;html=1;" parent="g_lak4xknPb3sHyO11MJ-3" vertex="1">
          <mxGeometry x="470" y="80" width="80" height="30" as="geometry" />
        </mxCell>
        <mxCell id="g_lak4xknPb3sHyO11MJ-31" style="edgeStyle=orthogonalEdgeStyle;rounded=0;orthogonalLoop=1;jettySize=auto;html=1;exitX=1;exitY=0.5;exitDx=0;exitDy=0;entryX=0.5;entryY=0;entryDx=0;entryDy=0;" parent="g_lak4xknPb3sHyO11MJ-3" source="g_lak4xknPb3sHyO11MJ-13" target="g_lak4xknPb3sHyO11MJ-30" edge="1">
          <mxGeometry relative="1" as="geometry" />
        </mxCell>
        <mxCell id="g_lak4xknPb3sHyO11MJ-13" value="E wait" style="rounded=1;whiteSpace=wrap;html=1;" parent="g_lak4xknPb3sHyO11MJ-3" vertex="1">
          <mxGeometry x="470" y="130" width="80" height="30" as="geometry" />
        </mxCell>
        <mxCell id="g_lak4xknPb3sHyO11MJ-124" style="edgeStyle=orthogonalEdgeStyle;rounded=0;orthogonalLoop=1;jettySize=auto;html=1;exitX=0;exitY=0.5;exitDx=0;exitDy=0;entryX=1;entryY=0.5;entryDx=0;entryDy=0;" parent="g_lak4xknPb3sHyO11MJ-3" source="g_lak4xknPb3sHyO11MJ-20" target="g_lak4xknPb3sHyO11MJ-123" edge="1">
          <mxGeometry relative="1" as="geometry" />
        </mxCell>
        <mxCell id="g_lak4xknPb3sHyO11MJ-20" value="Master" style="rounded=1;whiteSpace=wrap;html=1;" parent="g_lak4xknPb3sHyO11MJ-3" vertex="1">
          <mxGeometry x="230" y="20" width="80" height="30" as="geometry" />
        </mxCell>
        <mxCell id="g_lak4xknPb3sHyO11MJ-22" style="edgeStyle=orthogonalEdgeStyle;rounded=0;orthogonalLoop=1;jettySize=auto;html=1;exitX=0;exitY=0.5;exitDx=0;exitDy=0;entryX=1;entryY=0.5;entryDx=0;entryDy=0;" parent="g_lak4xknPb3sHyO11MJ-3" source="g_lak4xknPb3sHyO11MJ-21" target="g_lak4xknPb3sHyO11MJ-20" edge="1">
          <mxGeometry relative="1" as="geometry" />
        </mxCell>
        <mxCell id="g_lak4xknPb3sHyO11MJ-21" value="Top" style="rounded=1;whiteSpace=wrap;html=1;" parent="g_lak4xknPb3sHyO11MJ-3" vertex="1">
          <mxGeometry x="370" y="20" width="80" height="30" as="geometry" />
        </mxCell>
        <mxCell id="g_lak4xknPb3sHyO11MJ-30" value="Ready" style="rounded=1;whiteSpace=wrap;html=1;" parent="g_lak4xknPb3sHyO11MJ-3" vertex="1">
          <mxGeometry x="540" y="170" width="80" height="30" as="geometry" />
        </mxCell>
        <mxCell id="g_lak4xknPb3sHyO11MJ-125" style="edgeStyle=orthogonalEdgeStyle;rounded=0;orthogonalLoop=1;jettySize=auto;html=1;exitX=0;exitY=0.5;exitDx=0;exitDy=0;entryX=0.5;entryY=0;entryDx=0;entryDy=0;" parent="g_lak4xknPb3sHyO11MJ-3" source="g_lak4xknPb3sHyO11MJ-123" target="g_lak4xknPb3sHyO11MJ-2" edge="1">
          <mxGeometry relative="1" as="geometry" />
        </mxCell>
        <mxCell id="g_lak4xknPb3sHyO11MJ-123" value="Error_Handle" style="rounded=1;whiteSpace=wrap;html=1;" parent="g_lak4xknPb3sHyO11MJ-3" vertex="1">
          <mxGeometry x="110" y="20" width="80" height="30" as="geometry" />
        </mxCell>
        <mxCell id="g_lak4xknPb3sHyO11MJ-32" value="Normal Situation" style="text;html=1;align=center;verticalAlign=middle;whiteSpace=wrap;rounded=0;" parent="1" vertex="1">
          <mxGeometry x="80" y="40" width="110" height="30" as="geometry" />
        </mxCell>
        <mxCell id="g_lak4xknPb3sHyO11MJ-56" style="edgeStyle=orthogonalEdgeStyle;rounded=0;orthogonalLoop=1;jettySize=auto;html=1;exitX=1;exitY=0.5;exitDx=0;exitDy=0;entryX=0;entryY=0.5;entryDx=0;entryDy=0;" parent="1" source="g_lak4xknPb3sHyO11MJ-33" target="g_lak4xknPb3sHyO11MJ-55" edge="1">
          <mxGeometry relative="1" as="geometry">
            <Array as="points">
              <mxPoint x="351.25" y="645" />
              <mxPoint x="351.25" y="595" />
            </Array>
          </mxGeometry>
        </mxCell>
        <mxCell id="g_lak4xknPb3sHyO11MJ-121" style="edgeStyle=orthogonalEdgeStyle;rounded=0;orthogonalLoop=1;jettySize=auto;html=1;exitX=0.5;exitY=1;exitDx=0;exitDy=0;" parent="1" source="g_lak4xknPb3sHyO11MJ-33" edge="1">
          <mxGeometry relative="1" as="geometry">
            <mxPoint x="276" y="710" as="targetPoint" />
            <Array as="points">
              <mxPoint x="280" y="700" />
              <mxPoint x="280" y="700" />
            </Array>
          </mxGeometry>
        </mxCell>
        <mxCell id="g_lak4xknPb3sHyO11MJ-33" value="&lt;div data-docx-has-block-data=&quot;false&quot; data-lark-html-role=&quot;root&quot; data-page-id=&quot;FFf3dKYjiomsXBxuDeccj9uYnKd&quot;&gt;&lt;div class=&quot;old-record-id-VEfAdGlELorIsYx347QcFnDenlb&quot; style=&quot;white-space:pre;&quot;&gt;master_dispatch&lt;/div&gt;&lt;/div&gt;&lt;span class=&quot;lark-record-clipboard&quot; data-lark-record-format=&quot;docx/text&quot; data-lark-record-data=&quot;{&amp;quot;rootId&amp;quot;:&amp;quot;FFf3dKYjiomsXBxuDeccj9uYnKd&amp;quot;,&amp;quot;text&amp;quot;:{&amp;quot;initialAttributedTexts&amp;quot;:{&amp;quot;text&amp;quot;:{&amp;quot;0&amp;quot;:&amp;quot;master_dispatch&amp;quot;},&amp;quot;attribs&amp;quot;:{&amp;quot;0&amp;quot;:&amp;quot;*0+f&amp;quot;}},&amp;quot;apool&amp;quot;:{&amp;quot;numToAttrib&amp;quot;:{&amp;quot;0&amp;quot;:[&amp;quot;author&amp;quot;,&amp;quot;7477387424709328915&amp;quot;]},&amp;quot;nextNum&amp;quot;:1}},&amp;quot;type&amp;quot;:&amp;quot;text&amp;quot;,&amp;quot;referenceRecordMap&amp;quot;:{},&amp;quot;extra&amp;quot;:{&amp;quot;channel&amp;quot;:&amp;quot;saas&amp;quot;,&amp;quot;isEqualBlockSelection&amp;quot;:false,&amp;quot;pasteRandomId&amp;quot;:&amp;quot;3a9d1445-7dd4-4d2e-8f2d-b5e68322a748&amp;quot;,&amp;quot;mention_page_title&amp;quot;:{},&amp;quot;external_mention_url&amp;quot;:{}},&amp;quot;isKeepQuoteContainer&amp;quot;:false,&amp;quot;isFromCode&amp;quot;:true,&amp;quot;selection&amp;quot;:[{&amp;quot;id&amp;quot;:35,&amp;quot;type&amp;quot;:&amp;quot;text&amp;quot;,&amp;quot;selection&amp;quot;:{&amp;quot;start&amp;quot;:28,&amp;quot;end&amp;quot;:43},&amp;quot;recordId&amp;quot;:&amp;quot;VEfAdGlELorIsYx347QcFnDenlb&amp;quot;}],&amp;quot;payloadMap&amp;quot;:{},&amp;quot;isCut&amp;quot;:false}&quot;&gt;&lt;/span&gt;" style="text;html=1;align=center;verticalAlign=middle;whiteSpace=wrap;rounded=0;" parent="1" vertex="1">
          <mxGeometry x="231.25" y="630" width="90" height="30" as="geometry" />
        </mxCell>
        <mxCell id="g_lak4xknPb3sHyO11MJ-44" style="edgeStyle=orthogonalEdgeStyle;rounded=0;orthogonalLoop=1;jettySize=auto;html=1;exitX=0.5;exitY=1;exitDx=0;exitDy=0;entryX=0.5;entryY=0;entryDx=0;entryDy=0;" parent="1" source="g_lak4xknPb3sHyO11MJ-34" target="g_lak4xknPb3sHyO11MJ-43" edge="1">
          <mxGeometry relative="1" as="geometry" />
        </mxCell>
        <mxCell id="g_lak4xknPb3sHyO11MJ-34" value="&lt;div data-docx-has-block-data=&quot;false&quot; data-lark-html-role=&quot;root&quot; data-page-id=&quot;FFf3dKYjiomsXBxuDeccj9uYnKd&quot;&gt;&lt;div class=&quot;old-record-id-VEfAdGlELorIsYx347QcFnDenlb&quot; style=&quot;white-space:pre;&quot;&gt;&lt;div data-docx-has-block-data=&quot;false&quot; data-lark-html-role=&quot;root&quot; data-page-id=&quot;FFf3dKYjiomsXBxuDeccj9uYnKd&quot;&gt;&lt;div class=&quot;old-record-id-PUSNd8Cdko4FATxJq5JcLycXnTx&quot;&gt;evt_publish(STEP)&lt;/div&gt;&lt;/div&gt;&lt;span class=&quot;lark-record-clipboard&quot; data-lark-record-format=&quot;docx/text&quot; data-lark-record-data=&quot;{&amp;quot;rootId&amp;quot;:&amp;quot;FFf3dKYjiomsXBxuDeccj9uYnKd&amp;quot;,&amp;quot;text&amp;quot;:{&amp;quot;initialAttributedTexts&amp;quot;:{&amp;quot;text&amp;quot;:{&amp;quot;0&amp;quot;:&amp;quot;evt_publish(EVT_STEP_NEXT)&amp;quot;},&amp;quot;attribs&amp;quot;:{&amp;quot;0&amp;quot;:&amp;quot;*0+q&amp;quot;}},&amp;quot;apool&amp;quot;:{&amp;quot;numToAttrib&amp;quot;:{&amp;quot;0&amp;quot;:[&amp;quot;author&amp;quot;,&amp;quot;7477387424709328915&amp;quot;]},&amp;quot;nextNum&amp;quot;:1}},&amp;quot;type&amp;quot;:&amp;quot;text&amp;quot;,&amp;quot;referenceRecordMap&amp;quot;:{},&amp;quot;extra&amp;quot;:{&amp;quot;channel&amp;quot;:&amp;quot;saas&amp;quot;,&amp;quot;isEqualBlockSelection&amp;quot;:false,&amp;quot;pasteRandomId&amp;quot;:&amp;quot;6ae9989c-4363-4ca6-9e73-56ac55c976ef&amp;quot;,&amp;quot;mention_page_title&amp;quot;:{},&amp;quot;external_mention_url&amp;quot;:{}},&amp;quot;isKeepQuoteContainer&amp;quot;:false,&amp;quot;isFromCode&amp;quot;:true,&amp;quot;selection&amp;quot;:[{&amp;quot;id&amp;quot;:32,&amp;quot;type&amp;quot;:&amp;quot;text&amp;quot;,&amp;quot;selection&amp;quot;:{&amp;quot;start&amp;quot;:31,&amp;quot;end&amp;quot;:57},&amp;quot;recordId&amp;quot;:&amp;quot;PUSNd8Cdko4FATxJq5JcLycXnTx&amp;quot;}],&amp;quot;payloadMap&amp;quot;:{},&amp;quot;isCut&amp;quot;:false}&quot;&gt;&lt;/span&gt;&lt;/div&gt;&lt;/div&gt;&lt;span class=&quot;lark-record-clipboard&quot; data-lark-record-format=&quot;docx/text&quot; data-lark-record-data=&quot;{&amp;quot;rootId&amp;quot;:&amp;quot;FFf3dKYjiomsXBxuDeccj9uYnKd&amp;quot;,&amp;quot;text&amp;quot;:{&amp;quot;initialAttributedTexts&amp;quot;:{&amp;quot;text&amp;quot;:{&amp;quot;0&amp;quot;:&amp;quot;master_dispatch&amp;quot;},&amp;quot;attribs&amp;quot;:{&amp;quot;0&amp;quot;:&amp;quot;*0+f&amp;quot;}},&amp;quot;apool&amp;quot;:{&amp;quot;numToAttrib&amp;quot;:{&amp;quot;0&amp;quot;:[&amp;quot;author&amp;quot;,&amp;quot;7477387424709328915&amp;quot;]},&amp;quot;nextNum&amp;quot;:1}},&amp;quot;type&amp;quot;:&amp;quot;text&amp;quot;,&amp;quot;referenceRecordMap&amp;quot;:{},&amp;quot;extra&amp;quot;:{&amp;quot;channel&amp;quot;:&amp;quot;saas&amp;quot;,&amp;quot;isEqualBlockSelection&amp;quot;:false,&amp;quot;pasteRandomId&amp;quot;:&amp;quot;3a9d1445-7dd4-4d2e-8f2d-b5e68322a748&amp;quot;,&amp;quot;mention_page_title&amp;quot;:{},&amp;quot;external_mention_url&amp;quot;:{}},&amp;quot;isKeepQuoteContainer&amp;quot;:false,&amp;quot;isFromCode&amp;quot;:true,&amp;quot;selection&amp;quot;:[{&amp;quot;id&amp;quot;:35,&amp;quot;type&amp;quot;:&amp;quot;text&amp;quot;,&amp;quot;selection&amp;quot;:{&amp;quot;start&amp;quot;:28,&amp;quot;end&amp;quot;:43},&amp;quot;recordId&amp;quot;:&amp;quot;VEfAdGlELorIsYx347QcFnDenlb&amp;quot;}],&amp;quot;payloadMap&amp;quot;:{},&amp;quot;isCut&amp;quot;:false}&quot;&gt;&lt;/span&gt;" style="text;html=1;align=center;verticalAlign=middle;whiteSpace=wrap;rounded=0;" parent="1" vertex="1">
          <mxGeometry x="208.75" y="380" width="135" height="30" as="geometry" />
        </mxCell>
        <mxCell id="g_lak4xknPb3sHyO11MJ-38" style="edgeStyle=orthogonalEdgeStyle;rounded=0;orthogonalLoop=1;jettySize=auto;html=1;exitX=0.5;exitY=1;exitDx=0;exitDy=0;entryX=0.5;entryY=0;entryDx=0;entryDy=0;" parent="1" source="g_lak4xknPb3sHyO11MJ-36" target="g_lak4xknPb3sHyO11MJ-33" edge="1">
          <mxGeometry relative="1" as="geometry" />
        </mxCell>
        <mxCell id="g_lak4xknPb3sHyO11MJ-36" value="&lt;div data-docx-has-block-data=&quot;false&quot; data-lark-html-role=&quot;root&quot; data-page-id=&quot;FFf3dKYjiomsXBxuDeccj9uYnKd&quot;&gt;&lt;div class=&quot;old-record-id-VEfAdGlELorIsYx347QcFnDenlb&quot; style=&quot;white-space:pre;&quot;&gt;&lt;div data-docx-has-block-data=&quot;false&quot; data-lark-html-role=&quot;root&quot; data-page-id=&quot;FFf3dKYjiomsXBxuDeccj9uYnKd&quot;&gt;&lt;div class=&quot;old-record-id-PUSNd8Cdko4FATxJq5JcLycXnTx&quot;&gt;evt_get&lt;/div&gt;&lt;/div&gt;&lt;span class=&quot;lark-record-clipboard&quot; data-lark-record-format=&quot;docx/text&quot; data-lark-record-data=&quot;{&amp;quot;rootId&amp;quot;:&amp;quot;FFf3dKYjiomsXBxuDeccj9uYnKd&amp;quot;,&amp;quot;text&amp;quot;:{&amp;quot;initialAttributedTexts&amp;quot;:{&amp;quot;text&amp;quot;:{&amp;quot;0&amp;quot;:&amp;quot;evt_get&amp;quot;},&amp;quot;attribs&amp;quot;:{&amp;quot;0&amp;quot;:&amp;quot;*0+7&amp;quot;}},&amp;quot;apool&amp;quot;:{&amp;quot;numToAttrib&amp;quot;:{&amp;quot;0&amp;quot;:[&amp;quot;author&amp;quot;,&amp;quot;7477387424709328915&amp;quot;]},&amp;quot;nextNum&amp;quot;:1}},&amp;quot;type&amp;quot;:&amp;quot;text&amp;quot;,&amp;quot;referenceRecordMap&amp;quot;:{},&amp;quot;extra&amp;quot;:{&amp;quot;channel&amp;quot;:&amp;quot;saas&amp;quot;,&amp;quot;isEqualBlockSelection&amp;quot;:false,&amp;quot;pasteRandomId&amp;quot;:&amp;quot;74d30f30-1e0a-42d6-9610-fc32154891e5&amp;quot;,&amp;quot;mention_page_title&amp;quot;:{},&amp;quot;external_mention_url&amp;quot;:{}},&amp;quot;isKeepQuoteContainer&amp;quot;:false,&amp;quot;isFromCode&amp;quot;:true,&amp;quot;selection&amp;quot;:[{&amp;quot;id&amp;quot;:32,&amp;quot;type&amp;quot;:&amp;quot;text&amp;quot;,&amp;quot;selection&amp;quot;:{&amp;quot;start&amp;quot;:133,&amp;quot;end&amp;quot;:140},&amp;quot;recordId&amp;quot;:&amp;quot;PUSNd8Cdko4FATxJq5JcLycXnTx&amp;quot;}],&amp;quot;payloadMap&amp;quot;:{},&amp;quot;isCut&amp;quot;:false}&quot;&gt;&lt;/span&gt;&lt;/div&gt;&lt;/div&gt;&lt;span class=&quot;lark-record-clipboard&quot; data-lark-record-format=&quot;docx/text&quot; data-lark-record-data=&quot;{&amp;quot;rootId&amp;quot;:&amp;quot;FFf3dKYjiomsXBxuDeccj9uYnKd&amp;quot;,&amp;quot;text&amp;quot;:{&amp;quot;initialAttributedTexts&amp;quot;:{&amp;quot;text&amp;quot;:{&amp;quot;0&amp;quot;:&amp;quot;master_dispatch&amp;quot;},&amp;quot;attribs&amp;quot;:{&amp;quot;0&amp;quot;:&amp;quot;*0+f&amp;quot;}},&amp;quot;apool&amp;quot;:{&amp;quot;numToAttrib&amp;quot;:{&amp;quot;0&amp;quot;:[&amp;quot;author&amp;quot;,&amp;quot;7477387424709328915&amp;quot;]},&amp;quot;nextNum&amp;quot;:1}},&amp;quot;type&amp;quot;:&amp;quot;text&amp;quot;,&amp;quot;referenceRecordMap&amp;quot;:{},&amp;quot;extra&amp;quot;:{&amp;quot;channel&amp;quot;:&amp;quot;saas&amp;quot;,&amp;quot;isEqualBlockSelection&amp;quot;:false,&amp;quot;pasteRandomId&amp;quot;:&amp;quot;3a9d1445-7dd4-4d2e-8f2d-b5e68322a748&amp;quot;,&amp;quot;mention_page_title&amp;quot;:{},&amp;quot;external_mention_url&amp;quot;:{}},&amp;quot;isKeepQuoteContainer&amp;quot;:false,&amp;quot;isFromCode&amp;quot;:true,&amp;quot;selection&amp;quot;:[{&amp;quot;id&amp;quot;:35,&amp;quot;type&amp;quot;:&amp;quot;text&amp;quot;,&amp;quot;selection&amp;quot;:{&amp;quot;start&amp;quot;:28,&amp;quot;end&amp;quot;:43},&amp;quot;recordId&amp;quot;:&amp;quot;VEfAdGlELorIsYx347QcFnDenlb&amp;quot;}],&amp;quot;payloadMap&amp;quot;:{},&amp;quot;isCut&amp;quot;:false}&quot;&gt;&lt;/span&gt;" style="text;html=1;align=center;verticalAlign=middle;whiteSpace=wrap;rounded=0;" parent="1" vertex="1">
          <mxGeometry x="231.25" y="540" width="90" height="30" as="geometry" />
        </mxCell>
        <mxCell id="g_lak4xknPb3sHyO11MJ-40" value="" style="swimlane;startSize=0;" parent="1" vertex="1">
          <mxGeometry x="170" y="520" width="212.5" height="150" as="geometry">
            <mxRectangle x="147.5" y="440" width="50" height="40" as="alternateBounds" />
          </mxGeometry>
        </mxCell>
        <mxCell id="g_lak4xknPb3sHyO11MJ-41" value="EVT_LOOP" style="text;html=1;align=center;verticalAlign=middle;whiteSpace=wrap;rounded=0;" parent="g_lak4xknPb3sHyO11MJ-40" vertex="1">
          <mxGeometry x="11.25" y="10" width="70" height="20" as="geometry" />
        </mxCell>
        <mxCell id="g_lak4xknPb3sHyO11MJ-39" value="STEP" style="text;html=1;align=center;verticalAlign=middle;whiteSpace=wrap;rounded=0;" parent="g_lak4xknPb3sHyO11MJ-40" vertex="1">
          <mxGeometry x="51.25" y="70" width="60" height="30" as="geometry" />
        </mxCell>
        <mxCell id="g_lak4xknPb3sHyO11MJ-45" style="edgeStyle=orthogonalEdgeStyle;rounded=0;orthogonalLoop=1;jettySize=auto;html=1;exitX=0.5;exitY=1;exitDx=0;exitDy=0;entryX=0.5;entryY=0;entryDx=0;entryDy=0;" parent="1" source="g_lak4xknPb3sHyO11MJ-43" target="g_lak4xknPb3sHyO11MJ-36" edge="1">
          <mxGeometry relative="1" as="geometry" />
        </mxCell>
        <mxCell id="g_lak4xknPb3sHyO11MJ-50" style="edgeStyle=orthogonalEdgeStyle;rounded=0;orthogonalLoop=1;jettySize=auto;html=1;exitX=1;exitY=0.5;exitDx=0;exitDy=0;entryX=0;entryY=0.5;entryDx=0;entryDy=0;" parent="1" source="g_lak4xknPb3sHyO11MJ-43" target="g_lak4xknPb3sHyO11MJ-47" edge="1">
          <mxGeometry relative="1" as="geometry" />
        </mxCell>
        <mxCell id="g_lak4xknPb3sHyO11MJ-43" value="&lt;div data-docx-has-block-data=&quot;false&quot; data-lark-html-role=&quot;root&quot; data-page-id=&quot;FFf3dKYjiomsXBxuDeccj9uYnKd&quot;&gt;&lt;div class=&quot;old-record-id-VEfAdGlELorIsYx347QcFnDenlb&quot; style=&quot;white-space:pre;&quot;&gt;&lt;div data-docx-has-block-data=&quot;false&quot; data-lark-html-role=&quot;root&quot; data-page-id=&quot;FFf3dKYjiomsXBxuDeccj9uYnKd&quot;&gt;&lt;div class=&quot;old-record-id-PUSNd8Cdko4FATxJq5JcLycXnTx&quot;&gt;trans(a_req)&lt;/div&gt;&lt;/div&gt;&lt;span class=&quot;lark-record-clipboard&quot; data-lark-record-format=&quot;docx/text&quot; data-lark-record-data=&quot;{&amp;quot;rootId&amp;quot;:&amp;quot;FFf3dKYjiomsXBxuDeccj9uYnKd&amp;quot;,&amp;quot;text&amp;quot;:{&amp;quot;initialAttributedTexts&amp;quot;:{&amp;quot;text&amp;quot;:{&amp;quot;0&amp;quot;:&amp;quot;evt_publish(EVT_STEP_NEXT)&amp;quot;},&amp;quot;attribs&amp;quot;:{&amp;quot;0&amp;quot;:&amp;quot;*0+q&amp;quot;}},&amp;quot;apool&amp;quot;:{&amp;quot;numToAttrib&amp;quot;:{&amp;quot;0&amp;quot;:[&amp;quot;author&amp;quot;,&amp;quot;7477387424709328915&amp;quot;]},&amp;quot;nextNum&amp;quot;:1}},&amp;quot;type&amp;quot;:&amp;quot;text&amp;quot;,&amp;quot;referenceRecordMap&amp;quot;:{},&amp;quot;extra&amp;quot;:{&amp;quot;channel&amp;quot;:&amp;quot;saas&amp;quot;,&amp;quot;isEqualBlockSelection&amp;quot;:false,&amp;quot;pasteRandomId&amp;quot;:&amp;quot;6ae9989c-4363-4ca6-9e73-56ac55c976ef&amp;quot;,&amp;quot;mention_page_title&amp;quot;:{},&amp;quot;external_mention_url&amp;quot;:{}},&amp;quot;isKeepQuoteContainer&amp;quot;:false,&amp;quot;isFromCode&amp;quot;:true,&amp;quot;selection&amp;quot;:[{&amp;quot;id&amp;quot;:32,&amp;quot;type&amp;quot;:&amp;quot;text&amp;quot;,&amp;quot;selection&amp;quot;:{&amp;quot;start&amp;quot;:31,&amp;quot;end&amp;quot;:57},&amp;quot;recordId&amp;quot;:&amp;quot;PUSNd8Cdko4FATxJq5JcLycXnTx&amp;quot;}],&amp;quot;payloadMap&amp;quot;:{},&amp;quot;isCut&amp;quot;:false}&quot;&gt;&lt;/span&gt;&lt;/div&gt;&lt;/div&gt;&lt;span class=&quot;lark-record-clipboard&quot; data-lark-record-format=&quot;docx/text&quot; data-lark-record-data=&quot;{&amp;quot;rootId&amp;quot;:&amp;quot;FFf3dKYjiomsXBxuDeccj9uYnKd&amp;quot;,&amp;quot;text&amp;quot;:{&amp;quot;initialAttributedTexts&amp;quot;:{&amp;quot;text&amp;quot;:{&amp;quot;0&amp;quot;:&amp;quot;master_dispatch&amp;quot;},&amp;quot;attribs&amp;quot;:{&amp;quot;0&amp;quot;:&amp;quot;*0+f&amp;quot;}},&amp;quot;apool&amp;quot;:{&amp;quot;numToAttrib&amp;quot;:{&amp;quot;0&amp;quot;:[&amp;quot;author&amp;quot;,&amp;quot;7477387424709328915&amp;quot;]},&amp;quot;nextNum&amp;quot;:1}},&amp;quot;type&amp;quot;:&amp;quot;text&amp;quot;,&amp;quot;referenceRecordMap&amp;quot;:{},&amp;quot;extra&amp;quot;:{&amp;quot;channel&amp;quot;:&amp;quot;saas&amp;quot;,&amp;quot;isEqualBlockSelection&amp;quot;:false,&amp;quot;pasteRandomId&amp;quot;:&amp;quot;3a9d1445-7dd4-4d2e-8f2d-b5e68322a748&amp;quot;,&amp;quot;mention_page_title&amp;quot;:{},&amp;quot;external_mention_url&amp;quot;:{}},&amp;quot;isKeepQuoteContainer&amp;quot;:false,&amp;quot;isFromCode&amp;quot;:true,&amp;quot;selection&amp;quot;:[{&amp;quot;id&amp;quot;:35,&amp;quot;type&amp;quot;:&amp;quot;text&amp;quot;,&amp;quot;selection&amp;quot;:{&amp;quot;start&amp;quot;:28,&amp;quot;end&amp;quot;:43},&amp;quot;recordId&amp;quot;:&amp;quot;VEfAdGlELorIsYx347QcFnDenlb&amp;quot;}],&amp;quot;payloadMap&amp;quot;:{},&amp;quot;isCut&amp;quot;:false}&quot;&gt;&lt;/span&gt;" style="text;html=1;align=center;verticalAlign=middle;whiteSpace=wrap;rounded=0;" parent="1" vertex="1">
          <mxGeometry x="233.75" y="450" width="85" height="30" as="geometry" />
        </mxCell>
        <mxCell id="g_lak4xknPb3sHyO11MJ-51" style="edgeStyle=orthogonalEdgeStyle;rounded=0;orthogonalLoop=1;jettySize=auto;html=1;exitX=0.5;exitY=1;exitDx=0;exitDy=0;entryX=0.5;entryY=0;entryDx=0;entryDy=0;" parent="1" source="g_lak4xknPb3sHyO11MJ-47" target="g_lak4xknPb3sHyO11MJ-48" edge="1">
          <mxGeometry relative="1" as="geometry" />
        </mxCell>
        <mxCell id="g_lak4xknPb3sHyO11MJ-47" value="&lt;div data-docx-has-block-data=&quot;false&quot; data-lark-html-role=&quot;root&quot; data-page-id=&quot;FFf3dKYjiomsXBxuDeccj9uYnKd&quot;&gt;&lt;div class=&quot;old-record-id-VEfAdGlELorIsYx347QcFnDenlb&quot; style=&quot;white-space:pre;&quot;&gt;&lt;div data-docx-has-block-data=&quot;false&quot; data-lark-html-role=&quot;root&quot; data-page-id=&quot;FFf3dKYjiomsXBxuDeccj9uYnKd&quot;&gt;&lt;div class=&quot;old-record-id-PUSNd8Cdko4FATxJq5JcLycXnTx&quot;&gt;curr.exit&lt;/div&gt;&lt;/div&gt;&lt;span class=&quot;lark-record-clipboard&quot; data-lark-record-format=&quot;docx/text&quot; data-lark-record-data=&quot;{&amp;quot;rootId&amp;quot;:&amp;quot;FFf3dKYjiomsXBxuDeccj9uYnKd&amp;quot;,&amp;quot;text&amp;quot;:{&amp;quot;initialAttributedTexts&amp;quot;:{&amp;quot;text&amp;quot;:{&amp;quot;0&amp;quot;:&amp;quot;evt_publish(EVT_STEP_NEXT)&amp;quot;},&amp;quot;attribs&amp;quot;:{&amp;quot;0&amp;quot;:&amp;quot;*0+q&amp;quot;}},&amp;quot;apool&amp;quot;:{&amp;quot;numToAttrib&amp;quot;:{&amp;quot;0&amp;quot;:[&amp;quot;author&amp;quot;,&amp;quot;7477387424709328915&amp;quot;]},&amp;quot;nextNum&amp;quot;:1}},&amp;quot;type&amp;quot;:&amp;quot;text&amp;quot;,&amp;quot;referenceRecordMap&amp;quot;:{},&amp;quot;extra&amp;quot;:{&amp;quot;channel&amp;quot;:&amp;quot;saas&amp;quot;,&amp;quot;isEqualBlockSelection&amp;quot;:false,&amp;quot;pasteRandomId&amp;quot;:&amp;quot;6ae9989c-4363-4ca6-9e73-56ac55c976ef&amp;quot;,&amp;quot;mention_page_title&amp;quot;:{},&amp;quot;external_mention_url&amp;quot;:{}},&amp;quot;isKeepQuoteContainer&amp;quot;:false,&amp;quot;isFromCode&amp;quot;:true,&amp;quot;selection&amp;quot;:[{&amp;quot;id&amp;quot;:32,&amp;quot;type&amp;quot;:&amp;quot;text&amp;quot;,&amp;quot;selection&amp;quot;:{&amp;quot;start&amp;quot;:31,&amp;quot;end&amp;quot;:57},&amp;quot;recordId&amp;quot;:&amp;quot;PUSNd8Cdko4FATxJq5JcLycXnTx&amp;quot;}],&amp;quot;payloadMap&amp;quot;:{},&amp;quot;isCut&amp;quot;:false}&quot;&gt;&lt;/span&gt;&lt;/div&gt;&lt;/div&gt;&lt;span class=&quot;lark-record-clipboard&quot; data-lark-record-format=&quot;docx/text&quot; data-lark-record-data=&quot;{&amp;quot;rootId&amp;quot;:&amp;quot;FFf3dKYjiomsXBxuDeccj9uYnKd&amp;quot;,&amp;quot;text&amp;quot;:{&amp;quot;initialAttributedTexts&amp;quot;:{&amp;quot;text&amp;quot;:{&amp;quot;0&amp;quot;:&amp;quot;master_dispatch&amp;quot;},&amp;quot;attribs&amp;quot;:{&amp;quot;0&amp;quot;:&amp;quot;*0+f&amp;quot;}},&amp;quot;apool&amp;quot;:{&amp;quot;numToAttrib&amp;quot;:{&amp;quot;0&amp;quot;:[&amp;quot;author&amp;quot;,&amp;quot;7477387424709328915&amp;quot;]},&amp;quot;nextNum&amp;quot;:1}},&amp;quot;type&amp;quot;:&amp;quot;text&amp;quot;,&amp;quot;referenceRecordMap&amp;quot;:{},&amp;quot;extra&amp;quot;:{&amp;quot;channel&amp;quot;:&amp;quot;saas&amp;quot;,&amp;quot;isEqualBlockSelection&amp;quot;:false,&amp;quot;pasteRandomId&amp;quot;:&amp;quot;3a9d1445-7dd4-4d2e-8f2d-b5e68322a748&amp;quot;,&amp;quot;mention_page_title&amp;quot;:{},&amp;quot;external_mention_url&amp;quot;:{}},&amp;quot;isKeepQuoteContainer&amp;quot;:false,&amp;quot;isFromCode&amp;quot;:true,&amp;quot;selection&amp;quot;:[{&amp;quot;id&amp;quot;:35,&amp;quot;type&amp;quot;:&amp;quot;text&amp;quot;,&amp;quot;selection&amp;quot;:{&amp;quot;start&amp;quot;:28,&amp;quot;end&amp;quot;:43},&amp;quot;recordId&amp;quot;:&amp;quot;VEfAdGlELorIsYx347QcFnDenlb&amp;quot;}],&amp;quot;payloadMap&amp;quot;:{},&amp;quot;isCut&amp;quot;:false}&quot;&gt;&lt;/span&gt;" style="text;html=1;align=center;verticalAlign=middle;whiteSpace=wrap;rounded=0;" parent="1" vertex="1">
          <mxGeometry x="431.25" y="370" width="85" height="30" as="geometry" />
        </mxCell>
        <mxCell id="g_lak4xknPb3sHyO11MJ-52" style="edgeStyle=orthogonalEdgeStyle;rounded=0;orthogonalLoop=1;jettySize=auto;html=1;exitX=0.5;exitY=1;exitDx=0;exitDy=0;entryX=0.5;entryY=0;entryDx=0;entryDy=0;" parent="1" source="g_lak4xknPb3sHyO11MJ-48" target="g_lak4xknPb3sHyO11MJ-49" edge="1">
          <mxGeometry relative="1" as="geometry" />
        </mxCell>
        <mxCell id="g_lak4xknPb3sHyO11MJ-48" value="&lt;div data-docx-has-block-data=&quot;false&quot; data-lark-html-role=&quot;root&quot; data-page-id=&quot;FFf3dKYjiomsXBxuDeccj9uYnKd&quot;&gt;&lt;div class=&quot;old-record-id-VEfAdGlELorIsYx347QcFnDenlb&quot; style=&quot;white-space:pre;&quot;&gt;&lt;div data-docx-has-block-data=&quot;false&quot; data-lark-html-role=&quot;root&quot; data-page-id=&quot;FFf3dKYjiomsXBxuDeccj9uYnKd&quot;&gt;&lt;div class=&quot;old-record-id-PUSNd8Cdko4FATxJq5JcLycXnTx&quot;&gt;curr = a_req&lt;/div&gt;&lt;/div&gt;&lt;span class=&quot;lark-record-clipboard&quot; data-lark-record-format=&quot;docx/text&quot; data-lark-record-data=&quot;{&amp;quot;rootId&amp;quot;:&amp;quot;FFf3dKYjiomsXBxuDeccj9uYnKd&amp;quot;,&amp;quot;text&amp;quot;:{&amp;quot;initialAttributedTexts&amp;quot;:{&amp;quot;text&amp;quot;:{&amp;quot;0&amp;quot;:&amp;quot;evt_publish(EVT_STEP_NEXT)&amp;quot;},&amp;quot;attribs&amp;quot;:{&amp;quot;0&amp;quot;:&amp;quot;*0+q&amp;quot;}},&amp;quot;apool&amp;quot;:{&amp;quot;numToAttrib&amp;quot;:{&amp;quot;0&amp;quot;:[&amp;quot;author&amp;quot;,&amp;quot;7477387424709328915&amp;quot;]},&amp;quot;nextNum&amp;quot;:1}},&amp;quot;type&amp;quot;:&amp;quot;text&amp;quot;,&amp;quot;referenceRecordMap&amp;quot;:{},&amp;quot;extra&amp;quot;:{&amp;quot;channel&amp;quot;:&amp;quot;saas&amp;quot;,&amp;quot;isEqualBlockSelection&amp;quot;:false,&amp;quot;pasteRandomId&amp;quot;:&amp;quot;6ae9989c-4363-4ca6-9e73-56ac55c976ef&amp;quot;,&amp;quot;mention_page_title&amp;quot;:{},&amp;quot;external_mention_url&amp;quot;:{}},&amp;quot;isKeepQuoteContainer&amp;quot;:false,&amp;quot;isFromCode&amp;quot;:true,&amp;quot;selection&amp;quot;:[{&amp;quot;id&amp;quot;:32,&amp;quot;type&amp;quot;:&amp;quot;text&amp;quot;,&amp;quot;selection&amp;quot;:{&amp;quot;start&amp;quot;:31,&amp;quot;end&amp;quot;:57},&amp;quot;recordId&amp;quot;:&amp;quot;PUSNd8Cdko4FATxJq5JcLycXnTx&amp;quot;}],&amp;quot;payloadMap&amp;quot;:{},&amp;quot;isCut&amp;quot;:false}&quot;&gt;&lt;/span&gt;&lt;/div&gt;&lt;/div&gt;&lt;span class=&quot;lark-record-clipboard&quot; data-lark-record-format=&quot;docx/text&quot; data-lark-record-data=&quot;{&amp;quot;rootId&amp;quot;:&amp;quot;FFf3dKYjiomsXBxuDeccj9uYnKd&amp;quot;,&amp;quot;text&amp;quot;:{&amp;quot;initialAttributedTexts&amp;quot;:{&amp;quot;text&amp;quot;:{&amp;quot;0&amp;quot;:&amp;quot;master_dispatch&amp;quot;},&amp;quot;attribs&amp;quot;:{&amp;quot;0&amp;quot;:&amp;quot;*0+f&amp;quot;}},&amp;quot;apool&amp;quot;:{&amp;quot;numToAttrib&amp;quot;:{&amp;quot;0&amp;quot;:[&amp;quot;author&amp;quot;,&amp;quot;7477387424709328915&amp;quot;]},&amp;quot;nextNum&amp;quot;:1}},&amp;quot;type&amp;quot;:&amp;quot;text&amp;quot;,&amp;quot;referenceRecordMap&amp;quot;:{},&amp;quot;extra&amp;quot;:{&amp;quot;channel&amp;quot;:&amp;quot;saas&amp;quot;,&amp;quot;isEqualBlockSelection&amp;quot;:false,&amp;quot;pasteRandomId&amp;quot;:&amp;quot;3a9d1445-7dd4-4d2e-8f2d-b5e68322a748&amp;quot;,&amp;quot;mention_page_title&amp;quot;:{},&amp;quot;external_mention_url&amp;quot;:{}},&amp;quot;isKeepQuoteContainer&amp;quot;:false,&amp;quot;isFromCode&amp;quot;:true,&amp;quot;selection&amp;quot;:[{&amp;quot;id&amp;quot;:35,&amp;quot;type&amp;quot;:&amp;quot;text&amp;quot;,&amp;quot;selection&amp;quot;:{&amp;quot;start&amp;quot;:28,&amp;quot;end&amp;quot;:43},&amp;quot;recordId&amp;quot;:&amp;quot;VEfAdGlELorIsYx347QcFnDenlb&amp;quot;}],&amp;quot;payloadMap&amp;quot;:{},&amp;quot;isCut&amp;quot;:false}&quot;&gt;&lt;/span&gt;" style="text;html=1;align=center;verticalAlign=middle;whiteSpace=wrap;rounded=0;" parent="1" vertex="1">
          <mxGeometry x="431.25" y="430" width="85" height="30" as="geometry" />
        </mxCell>
        <mxCell id="g_lak4xknPb3sHyO11MJ-54" style="edgeStyle=orthogonalEdgeStyle;rounded=0;orthogonalLoop=1;jettySize=auto;html=1;exitX=0;exitY=0.5;exitDx=0;exitDy=0;entryX=0.75;entryY=1;entryDx=0;entryDy=0;" parent="1" source="g_lak4xknPb3sHyO11MJ-49" target="g_lak4xknPb3sHyO11MJ-43" edge="1">
          <mxGeometry relative="1" as="geometry">
            <Array as="points">
              <mxPoint x="297.25" y="495" />
            </Array>
          </mxGeometry>
        </mxCell>
        <mxCell id="g_lak4xknPb3sHyO11MJ-49" value="&lt;div data-docx-has-block-data=&quot;false&quot; data-lark-html-role=&quot;root&quot; data-page-id=&quot;FFf3dKYjiomsXBxuDeccj9uYnKd&quot;&gt;&lt;div class=&quot;old-record-id-VEfAdGlELorIsYx347QcFnDenlb&quot; style=&quot;white-space:pre;&quot;&gt;&lt;div data-docx-has-block-data=&quot;false&quot; data-lark-html-role=&quot;root&quot; data-page-id=&quot;FFf3dKYjiomsXBxuDeccj9uYnKd&quot;&gt;&lt;div class=&quot;old-record-id-PUSNd8Cdko4FATxJq5JcLycXnTx&quot;&gt;curr.entry&lt;/div&gt;&lt;/div&gt;&lt;span class=&quot;lark-record-clipboard&quot; data-lark-record-format=&quot;docx/text&quot; data-lark-record-data=&quot;{&amp;quot;rootId&amp;quot;:&amp;quot;FFf3dKYjiomsXBxuDeccj9uYnKd&amp;quot;,&amp;quot;text&amp;quot;:{&amp;quot;initialAttributedTexts&amp;quot;:{&amp;quot;text&amp;quot;:{&amp;quot;0&amp;quot;:&amp;quot;evt_publish(EVT_STEP_NEXT)&amp;quot;},&amp;quot;attribs&amp;quot;:{&amp;quot;0&amp;quot;:&amp;quot;*0+q&amp;quot;}},&amp;quot;apool&amp;quot;:{&amp;quot;numToAttrib&amp;quot;:{&amp;quot;0&amp;quot;:[&amp;quot;author&amp;quot;,&amp;quot;7477387424709328915&amp;quot;]},&amp;quot;nextNum&amp;quot;:1}},&amp;quot;type&amp;quot;:&amp;quot;text&amp;quot;,&amp;quot;referenceRecordMap&amp;quot;:{},&amp;quot;extra&amp;quot;:{&amp;quot;channel&amp;quot;:&amp;quot;saas&amp;quot;,&amp;quot;isEqualBlockSelection&amp;quot;:false,&amp;quot;pasteRandomId&amp;quot;:&amp;quot;6ae9989c-4363-4ca6-9e73-56ac55c976ef&amp;quot;,&amp;quot;mention_page_title&amp;quot;:{},&amp;quot;external_mention_url&amp;quot;:{}},&amp;quot;isKeepQuoteContainer&amp;quot;:false,&amp;quot;isFromCode&amp;quot;:true,&amp;quot;selection&amp;quot;:[{&amp;quot;id&amp;quot;:32,&amp;quot;type&amp;quot;:&amp;quot;text&amp;quot;,&amp;quot;selection&amp;quot;:{&amp;quot;start&amp;quot;:31,&amp;quot;end&amp;quot;:57},&amp;quot;recordId&amp;quot;:&amp;quot;PUSNd8Cdko4FATxJq5JcLycXnTx&amp;quot;}],&amp;quot;payloadMap&amp;quot;:{},&amp;quot;isCut&amp;quot;:false}&quot;&gt;&lt;/span&gt;&lt;/div&gt;&lt;/div&gt;&lt;span class=&quot;lark-record-clipboard&quot; data-lark-record-format=&quot;docx/text&quot; data-lark-record-data=&quot;{&amp;quot;rootId&amp;quot;:&amp;quot;FFf3dKYjiomsXBxuDeccj9uYnKd&amp;quot;,&amp;quot;text&amp;quot;:{&amp;quot;initialAttributedTexts&amp;quot;:{&amp;quot;text&amp;quot;:{&amp;quot;0&amp;quot;:&amp;quot;master_dispatch&amp;quot;},&amp;quot;attribs&amp;quot;:{&amp;quot;0&amp;quot;:&amp;quot;*0+f&amp;quot;}},&amp;quot;apool&amp;quot;:{&amp;quot;numToAttrib&amp;quot;:{&amp;quot;0&amp;quot;:[&amp;quot;author&amp;quot;,&amp;quot;7477387424709328915&amp;quot;]},&amp;quot;nextNum&amp;quot;:1}},&amp;quot;type&amp;quot;:&amp;quot;text&amp;quot;,&amp;quot;referenceRecordMap&amp;quot;:{},&amp;quot;extra&amp;quot;:{&amp;quot;channel&amp;quot;:&amp;quot;saas&amp;quot;,&amp;quot;isEqualBlockSelection&amp;quot;:false,&amp;quot;pasteRandomId&amp;quot;:&amp;quot;3a9d1445-7dd4-4d2e-8f2d-b5e68322a748&amp;quot;,&amp;quot;mention_page_title&amp;quot;:{},&amp;quot;external_mention_url&amp;quot;:{}},&amp;quot;isKeepQuoteContainer&amp;quot;:false,&amp;quot;isFromCode&amp;quot;:true,&amp;quot;selection&amp;quot;:[{&amp;quot;id&amp;quot;:35,&amp;quot;type&amp;quot;:&amp;quot;text&amp;quot;,&amp;quot;selection&amp;quot;:{&amp;quot;start&amp;quot;:28,&amp;quot;end&amp;quot;:43},&amp;quot;recordId&amp;quot;:&amp;quot;VEfAdGlELorIsYx347QcFnDenlb&amp;quot;}],&amp;quot;payloadMap&amp;quot;:{},&amp;quot;isCut&amp;quot;:false}&quot;&gt;&lt;/span&gt;" style="text;html=1;align=center;verticalAlign=middle;whiteSpace=wrap;rounded=0;" parent="1" vertex="1">
          <mxGeometry x="431.25" y="480" width="85" height="30" as="geometry" />
        </mxCell>
        <mxCell id="g_lak4xknPb3sHyO11MJ-58" style="edgeStyle=orthogonalEdgeStyle;rounded=0;orthogonalLoop=1;jettySize=auto;html=1;exitX=0.5;exitY=1;exitDx=0;exitDy=0;entryX=0.5;entryY=0;entryDx=0;entryDy=0;" parent="1" source="g_lak4xknPb3sHyO11MJ-55" target="g_lak4xknPb3sHyO11MJ-57" edge="1">
          <mxGeometry relative="1" as="geometry" />
        </mxCell>
        <mxCell id="g_lak4xknPb3sHyO11MJ-61" style="edgeStyle=orthogonalEdgeStyle;rounded=0;orthogonalLoop=1;jettySize=auto;html=1;exitX=1;exitY=0.5;exitDx=0;exitDy=0;" parent="1" source="g_lak4xknPb3sHyO11MJ-55" target="g_lak4xknPb3sHyO11MJ-60" edge="1">
          <mxGeometry relative="1" as="geometry" />
        </mxCell>
        <mxCell id="g_lak4xknPb3sHyO11MJ-55" value="curr.dispatch" style="text;html=1;align=center;verticalAlign=middle;whiteSpace=wrap;rounded=0;" parent="1" vertex="1">
          <mxGeometry x="431.25" y="580" width="85" height="30" as="geometry" />
        </mxCell>
        <mxCell id="g_lak4xknPb3sHyO11MJ-120" style="edgeStyle=orthogonalEdgeStyle;rounded=0;orthogonalLoop=1;jettySize=auto;html=1;exitX=0;exitY=0.5;exitDx=0;exitDy=0;entryX=1;entryY=0.75;entryDx=0;entryDy=0;" parent="1" source="g_lak4xknPb3sHyO11MJ-57" target="g_lak4xknPb3sHyO11MJ-33" edge="1">
          <mxGeometry relative="1" as="geometry">
            <Array as="points">
              <mxPoint x="410" y="675" />
              <mxPoint x="410" y="653" />
            </Array>
          </mxGeometry>
        </mxCell>
        <mxCell id="g_lak4xknPb3sHyO11MJ-59" value="OK" style="text;html=1;align=center;verticalAlign=middle;whiteSpace=wrap;rounded=0;" parent="1" vertex="1">
          <mxGeometry x="431.25" y="620" width="46" height="20" as="geometry" />
        </mxCell>
        <mxCell id="g_lak4xknPb3sHyO11MJ-63" style="edgeStyle=orthogonalEdgeStyle;rounded=0;orthogonalLoop=1;jettySize=auto;html=1;exitX=0.5;exitY=0;exitDx=0;exitDy=0;entryX=0.5;entryY=0;entryDx=0;entryDy=0;" parent="1" source="g_lak4xknPb3sHyO11MJ-60" target="g_lak4xknPb3sHyO11MJ-55" edge="1">
          <mxGeometry relative="1" as="geometry">
            <Array as="points">
              <mxPoint x="601.25" y="550" />
              <mxPoint x="474.25" y="550" />
            </Array>
          </mxGeometry>
        </mxCell>
        <mxCell id="g_lak4xknPb3sHyO11MJ-60" value="curr = curr.super" style="text;html=1;align=center;verticalAlign=middle;whiteSpace=wrap;rounded=0;" parent="1" vertex="1">
          <mxGeometry x="551.25" y="585" width="100" height="20" as="geometry" />
        </mxCell>
        <mxCell id="g_lak4xknPb3sHyO11MJ-62" value="NG" style="text;html=1;align=center;verticalAlign=middle;whiteSpace=wrap;rounded=0;" parent="1" vertex="1">
          <mxGeometry x="505.25" y="570" width="46" height="20" as="geometry" />
        </mxCell>
        <mxCell id="g_lak4xknPb3sHyO11MJ-64" value="" style="swimlane;startSize=0;" parent="1" vertex="1">
          <mxGeometry x="140" y="360" width="530" height="360" as="geometry" />
        </mxCell>
        <mxCell id="g_lak4xknPb3sHyO11MJ-57" value="&lt;div data-docx-has-block-data=&quot;false&quot; data-lark-html-role=&quot;root&quot; data-page-id=&quot;FFf3dKYjiomsXBxuDeccj9uYnKd&quot;&gt;&lt;div class=&quot;old-record-id-VEfAdGlELorIsYx347QcFnDenlb&quot; style=&quot;white-space:pre;&quot;&gt;&lt;div data-docx-has-block-data=&quot;false&quot; data-lark-html-role=&quot;root&quot; data-page-id=&quot;FFf3dKYjiomsXBxuDeccj9uYnKd&quot;&gt;&lt;div class=&quot;old-record-id-PUSNd8Cdko4FATxJq5JcLycXnTx&quot;&gt;tran&lt;/div&gt;&lt;/div&gt;&lt;span class=&quot;lark-record-clipboard&quot; data-lark-record-format=&quot;docx/text&quot; data-lark-record-data=&quot;{&amp;quot;rootId&amp;quot;:&amp;quot;FFf3dKYjiomsXBxuDeccj9uYnKd&amp;quot;,&amp;quot;text&amp;quot;:{&amp;quot;initialAttributedTexts&amp;quot;:{&amp;quot;text&amp;quot;:{&amp;quot;0&amp;quot;:&amp;quot;evt_publish(EVT_STEP_NEXT)&amp;quot;},&amp;quot;attribs&amp;quot;:{&amp;quot;0&amp;quot;:&amp;quot;*0+q&amp;quot;}},&amp;quot;apool&amp;quot;:{&amp;quot;numToAttrib&amp;quot;:{&amp;quot;0&amp;quot;:[&amp;quot;author&amp;quot;,&amp;quot;7477387424709328915&amp;quot;]},&amp;quot;nextNum&amp;quot;:1}},&amp;quot;type&amp;quot;:&amp;quot;text&amp;quot;,&amp;quot;referenceRecordMap&amp;quot;:{},&amp;quot;extra&amp;quot;:{&amp;quot;channel&amp;quot;:&amp;quot;saas&amp;quot;,&amp;quot;isEqualBlockSelection&amp;quot;:false,&amp;quot;pasteRandomId&amp;quot;:&amp;quot;6ae9989c-4363-4ca6-9e73-56ac55c976ef&amp;quot;,&amp;quot;mention_page_title&amp;quot;:{},&amp;quot;external_mention_url&amp;quot;:{}},&amp;quot;isKeepQuoteContainer&amp;quot;:false,&amp;quot;isFromCode&amp;quot;:true,&amp;quot;selection&amp;quot;:[{&amp;quot;id&amp;quot;:32,&amp;quot;type&amp;quot;:&amp;quot;text&amp;quot;,&amp;quot;selection&amp;quot;:{&amp;quot;start&amp;quot;:31,&amp;quot;end&amp;quot;:57},&amp;quot;recordId&amp;quot;:&amp;quot;PUSNd8Cdko4FATxJq5JcLycXnTx&amp;quot;}],&amp;quot;payloadMap&amp;quot;:{},&amp;quot;isCut&amp;quot;:false}&quot;&gt;&lt;/span&gt;&lt;/div&gt;&lt;/div&gt;&lt;span class=&quot;lark-record-clipboard&quot; data-lark-record-format=&quot;docx/text&quot; data-lark-record-data=&quot;{&amp;quot;rootId&amp;quot;:&amp;quot;FFf3dKYjiomsXBxuDeccj9uYnKd&amp;quot;,&amp;quot;text&amp;quot;:{&amp;quot;initialAttributedTexts&amp;quot;:{&amp;quot;text&amp;quot;:{&amp;quot;0&amp;quot;:&amp;quot;master_dispatch&amp;quot;},&amp;quot;attribs&amp;quot;:{&amp;quot;0&amp;quot;:&amp;quot;*0+f&amp;quot;}},&amp;quot;apool&amp;quot;:{&amp;quot;numToAttrib&amp;quot;:{&amp;quot;0&amp;quot;:[&amp;quot;author&amp;quot;,&amp;quot;7477387424709328915&amp;quot;]},&amp;quot;nextNum&amp;quot;:1}},&amp;quot;type&amp;quot;:&amp;quot;text&amp;quot;,&amp;quot;referenceRecordMap&amp;quot;:{},&amp;quot;extra&amp;quot;:{&amp;quot;channel&amp;quot;:&amp;quot;saas&amp;quot;,&amp;quot;isEqualBlockSelection&amp;quot;:false,&amp;quot;pasteRandomId&amp;quot;:&amp;quot;3a9d1445-7dd4-4d2e-8f2d-b5e68322a748&amp;quot;,&amp;quot;mention_page_title&amp;quot;:{},&amp;quot;external_mention_url&amp;quot;:{}},&amp;quot;isKeepQuoteContainer&amp;quot;:false,&amp;quot;isFromCode&amp;quot;:true,&amp;quot;selection&amp;quot;:[{&amp;quot;id&amp;quot;:35,&amp;quot;type&amp;quot;:&amp;quot;text&amp;quot;,&amp;quot;selection&amp;quot;:{&amp;quot;start&amp;quot;:28,&amp;quot;end&amp;quot;:43},&amp;quot;recordId&amp;quot;:&amp;quot;VEfAdGlELorIsYx347QcFnDenlb&amp;quot;}],&amp;quot;payloadMap&amp;quot;:{},&amp;quot;isCut&amp;quot;:false}&quot;&gt;&lt;/span&gt;" style="text;html=1;align=center;verticalAlign=middle;whiteSpace=wrap;rounded=0;" parent="g_lak4xknPb3sHyO11MJ-64" vertex="1">
          <mxGeometry x="305.63" y="300" width="56.25" height="30" as="geometry" />
        </mxCell>
        <mxCell id="g_lak4xknPb3sHyO11MJ-65" value="Normal node" style="text;html=1;align=center;verticalAlign=middle;whiteSpace=wrap;rounded=0;" parent="1" vertex="1">
          <mxGeometry x="118.75" y="330" width="90" height="30" as="geometry" />
        </mxCell>
        <mxCell id="g_lak4xknPb3sHyO11MJ-92" value="" style="swimlane;startSize=0;" parent="1" vertex="1">
          <mxGeometry x="140" y="780" width="530" height="280" as="geometry" />
        </mxCell>
        <mxCell id="g_lak4xknPb3sHyO11MJ-66" style="edgeStyle=orthogonalEdgeStyle;rounded=0;orthogonalLoop=1;jettySize=auto;html=1;exitX=1;exitY=0.5;exitDx=0;exitDy=0;entryX=0;entryY=0.5;entryDx=0;entryDy=0;" parent="g_lak4xknPb3sHyO11MJ-92" source="g_lak4xknPb3sHyO11MJ-67" target="g_lak4xknPb3sHyO11MJ-86" edge="1">
          <mxGeometry relative="1" as="geometry">
            <Array as="points">
              <mxPoint x="214.25" y="205" />
              <mxPoint x="214.25" y="155" />
            </Array>
          </mxGeometry>
        </mxCell>
        <mxCell id="g_lak4xknPb3sHyO11MJ-119" style="edgeStyle=orthogonalEdgeStyle;rounded=0;orthogonalLoop=1;jettySize=auto;html=1;exitX=0.5;exitY=1;exitDx=0;exitDy=0;" parent="g_lak4xknPb3sHyO11MJ-92" source="g_lak4xknPb3sHyO11MJ-67" edge="1">
          <mxGeometry relative="1" as="geometry">
            <mxPoint x="140" y="250" as="targetPoint" />
            <Array as="points">
              <mxPoint x="140" y="250" />
              <mxPoint x="140" y="250" />
            </Array>
          </mxGeometry>
        </mxCell>
        <mxCell id="g_lak4xknPb3sHyO11MJ-67" value="&lt;div data-docx-has-block-data=&quot;false&quot; data-lark-html-role=&quot;root&quot; data-page-id=&quot;FFf3dKYjiomsXBxuDeccj9uYnKd&quot;&gt;&lt;div class=&quot;old-record-id-VEfAdGlELorIsYx347QcFnDenlb&quot; style=&quot;white-space:pre;&quot;&gt;master_dispatch&lt;/div&gt;&lt;/div&gt;&lt;span class=&quot;lark-record-clipboard&quot; data-lark-record-format=&quot;docx/text&quot; data-lark-record-data=&quot;{&amp;quot;rootId&amp;quot;:&amp;quot;FFf3dKYjiomsXBxuDeccj9uYnKd&amp;quot;,&amp;quot;text&amp;quot;:{&amp;quot;initialAttributedTexts&amp;quot;:{&amp;quot;text&amp;quot;:{&amp;quot;0&amp;quot;:&amp;quot;master_dispatch&amp;quot;},&amp;quot;attribs&amp;quot;:{&amp;quot;0&amp;quot;:&amp;quot;*0+f&amp;quot;}},&amp;quot;apool&amp;quot;:{&amp;quot;numToAttrib&amp;quot;:{&amp;quot;0&amp;quot;:[&amp;quot;author&amp;quot;,&amp;quot;7477387424709328915&amp;quot;]},&amp;quot;nextNum&amp;quot;:1}},&amp;quot;type&amp;quot;:&amp;quot;text&amp;quot;,&amp;quot;referenceRecordMap&amp;quot;:{},&amp;quot;extra&amp;quot;:{&amp;quot;channel&amp;quot;:&amp;quot;saas&amp;quot;,&amp;quot;isEqualBlockSelection&amp;quot;:false,&amp;quot;pasteRandomId&amp;quot;:&amp;quot;3a9d1445-7dd4-4d2e-8f2d-b5e68322a748&amp;quot;,&amp;quot;mention_page_title&amp;quot;:{},&amp;quot;external_mention_url&amp;quot;:{}},&amp;quot;isKeepQuoteContainer&amp;quot;:false,&amp;quot;isFromCode&amp;quot;:true,&amp;quot;selection&amp;quot;:[{&amp;quot;id&amp;quot;:35,&amp;quot;type&amp;quot;:&amp;quot;text&amp;quot;,&amp;quot;selection&amp;quot;:{&amp;quot;start&amp;quot;:28,&amp;quot;end&amp;quot;:43},&amp;quot;recordId&amp;quot;:&amp;quot;VEfAdGlELorIsYx347QcFnDenlb&amp;quot;}],&amp;quot;payloadMap&amp;quot;:{},&amp;quot;isCut&amp;quot;:false}&quot;&gt;&lt;/span&gt;" style="text;html=1;align=center;verticalAlign=middle;whiteSpace=wrap;rounded=0;" parent="g_lak4xknPb3sHyO11MJ-92" vertex="1">
          <mxGeometry x="94.25" y="190" width="90" height="30" as="geometry" />
        </mxCell>
        <mxCell id="g_lak4xknPb3sHyO11MJ-70" style="edgeStyle=orthogonalEdgeStyle;rounded=0;orthogonalLoop=1;jettySize=auto;html=1;exitX=0.5;exitY=1;exitDx=0;exitDy=0;entryX=0.5;entryY=0;entryDx=0;entryDy=0;" parent="g_lak4xknPb3sHyO11MJ-92" source="g_lak4xknPb3sHyO11MJ-71" target="g_lak4xknPb3sHyO11MJ-67" edge="1">
          <mxGeometry relative="1" as="geometry" />
        </mxCell>
        <mxCell id="g_lak4xknPb3sHyO11MJ-72" value="" style="swimlane;startSize=0;" parent="g_lak4xknPb3sHyO11MJ-92" vertex="1">
          <mxGeometry x="33" y="80" width="212.5" height="150" as="geometry">
            <mxRectangle x="147.5" y="440" width="50" height="40" as="alternateBounds" />
          </mxGeometry>
        </mxCell>
        <mxCell id="g_lak4xknPb3sHyO11MJ-73" value="EVT_LOOP" style="text;html=1;align=center;verticalAlign=middle;whiteSpace=wrap;rounded=0;" parent="g_lak4xknPb3sHyO11MJ-72" vertex="1">
          <mxGeometry x="11.25" y="10" width="70" height="20" as="geometry" />
        </mxCell>
        <mxCell id="g_lak4xknPb3sHyO11MJ-84" style="edgeStyle=orthogonalEdgeStyle;rounded=0;orthogonalLoop=1;jettySize=auto;html=1;exitX=0.5;exitY=1;exitDx=0;exitDy=0;entryX=0.5;entryY=0;entryDx=0;entryDy=0;" parent="g_lak4xknPb3sHyO11MJ-92" source="g_lak4xknPb3sHyO11MJ-86" edge="1">
          <mxGeometry relative="1" as="geometry">
            <mxPoint x="336.7500000000002" y="220.00000000000023" as="targetPoint" />
          </mxGeometry>
        </mxCell>
        <mxCell id="g_lak4xknPb3sHyO11MJ-85" style="edgeStyle=orthogonalEdgeStyle;rounded=0;orthogonalLoop=1;jettySize=auto;html=1;exitX=1;exitY=0.5;exitDx=0;exitDy=0;" parent="g_lak4xknPb3sHyO11MJ-92" source="g_lak4xknPb3sHyO11MJ-86" target="g_lak4xknPb3sHyO11MJ-90" edge="1">
          <mxGeometry relative="1" as="geometry" />
        </mxCell>
        <mxCell id="g_lak4xknPb3sHyO11MJ-86" value="curr.dispatch" style="text;html=1;align=center;verticalAlign=middle;whiteSpace=wrap;rounded=0;" parent="g_lak4xknPb3sHyO11MJ-92" vertex="1">
          <mxGeometry x="294.25" y="140" width="85" height="30" as="geometry" />
        </mxCell>
        <mxCell id="g_lak4xknPb3sHyO11MJ-88" value="OK" style="text;html=1;align=center;verticalAlign=middle;whiteSpace=wrap;rounded=0;" parent="g_lak4xknPb3sHyO11MJ-92" vertex="1">
          <mxGeometry x="294.25" y="180" width="46" height="20" as="geometry" />
        </mxCell>
        <mxCell id="g_lak4xknPb3sHyO11MJ-89" style="edgeStyle=orthogonalEdgeStyle;rounded=0;orthogonalLoop=1;jettySize=auto;html=1;exitX=0.5;exitY=0;exitDx=0;exitDy=0;entryX=0.5;entryY=0;entryDx=0;entryDy=0;" parent="g_lak4xknPb3sHyO11MJ-92" source="g_lak4xknPb3sHyO11MJ-90" target="g_lak4xknPb3sHyO11MJ-86" edge="1">
          <mxGeometry relative="1" as="geometry">
            <Array as="points">
              <mxPoint x="464.25" y="110" />
              <mxPoint x="337.25" y="110" />
            </Array>
          </mxGeometry>
        </mxCell>
        <mxCell id="g_lak4xknPb3sHyO11MJ-90" value="curr = curr.super" style="text;html=1;align=center;verticalAlign=middle;whiteSpace=wrap;rounded=0;" parent="g_lak4xknPb3sHyO11MJ-92" vertex="1">
          <mxGeometry x="414.25" y="145" width="100" height="20" as="geometry" />
        </mxCell>
        <mxCell id="g_lak4xknPb3sHyO11MJ-91" value="NG" style="text;html=1;align=center;verticalAlign=middle;whiteSpace=wrap;rounded=0;" parent="g_lak4xknPb3sHyO11MJ-92" vertex="1">
          <mxGeometry x="368.25" y="130" width="46" height="20" as="geometry" />
        </mxCell>
        <mxCell id="g_lak4xknPb3sHyO11MJ-74" value="Async ACK" style="text;html=1;align=center;verticalAlign=middle;whiteSpace=wrap;rounded=0;" parent="g_lak4xknPb3sHyO11MJ-92" vertex="1">
          <mxGeometry x="61.75" y="150" width="71.25" height="30" as="geometry" />
        </mxCell>
        <mxCell id="g_lak4xknPb3sHyO11MJ-94" value="curr=x_wait" style="text;html=1;align=center;verticalAlign=middle;whiteSpace=wrap;rounded=0;" parent="g_lak4xknPb3sHyO11MJ-92" vertex="1">
          <mxGeometry x="109.25" y="10" width="60" height="30" as="geometry" />
        </mxCell>
        <mxCell id="g_lak4xknPb3sHyO11MJ-71" value="&lt;div data-docx-has-block-data=&quot;false&quot; data-lark-html-role=&quot;root&quot; data-page-id=&quot;FFf3dKYjiomsXBxuDeccj9uYnKd&quot;&gt;&lt;div class=&quot;old-record-id-VEfAdGlELorIsYx347QcFnDenlb&quot; style=&quot;white-space:pre;&quot;&gt;&lt;div data-docx-has-block-data=&quot;false&quot; data-lark-html-role=&quot;root&quot; data-page-id=&quot;FFf3dKYjiomsXBxuDeccj9uYnKd&quot;&gt;&lt;div class=&quot;old-record-id-PUSNd8Cdko4FATxJq5JcLycXnTx&quot;&gt;evt_get&lt;/div&gt;&lt;/div&gt;&lt;span class=&quot;lark-record-clipboard&quot; data-lark-record-format=&quot;docx/text&quot; data-lark-record-data=&quot;{&amp;quot;rootId&amp;quot;:&amp;quot;FFf3dKYjiomsXBxuDeccj9uYnKd&amp;quot;,&amp;quot;text&amp;quot;:{&amp;quot;initialAttributedTexts&amp;quot;:{&amp;quot;text&amp;quot;:{&amp;quot;0&amp;quot;:&amp;quot;evt_get&amp;quot;},&amp;quot;attribs&amp;quot;:{&amp;quot;0&amp;quot;:&amp;quot;*0+7&amp;quot;}},&amp;quot;apool&amp;quot;:{&amp;quot;numToAttrib&amp;quot;:{&amp;quot;0&amp;quot;:[&amp;quot;author&amp;quot;,&amp;quot;7477387424709328915&amp;quot;]},&amp;quot;nextNum&amp;quot;:1}},&amp;quot;type&amp;quot;:&amp;quot;text&amp;quot;,&amp;quot;referenceRecordMap&amp;quot;:{},&amp;quot;extra&amp;quot;:{&amp;quot;channel&amp;quot;:&amp;quot;saas&amp;quot;,&amp;quot;isEqualBlockSelection&amp;quot;:false,&amp;quot;pasteRandomId&amp;quot;:&amp;quot;74d30f30-1e0a-42d6-9610-fc32154891e5&amp;quot;,&amp;quot;mention_page_title&amp;quot;:{},&amp;quot;external_mention_url&amp;quot;:{}},&amp;quot;isKeepQuoteContainer&amp;quot;:false,&amp;quot;isFromCode&amp;quot;:true,&amp;quot;selection&amp;quot;:[{&amp;quot;id&amp;quot;:32,&amp;quot;type&amp;quot;:&amp;quot;text&amp;quot;,&amp;quot;selection&amp;quot;:{&amp;quot;start&amp;quot;:133,&amp;quot;end&amp;quot;:140},&amp;quot;recordId&amp;quot;:&amp;quot;PUSNd8Cdko4FATxJq5JcLycXnTx&amp;quot;}],&amp;quot;payloadMap&amp;quot;:{},&amp;quot;isCut&amp;quot;:false}&quot;&gt;&lt;/span&gt;&lt;/div&gt;&lt;/div&gt;&lt;span class=&quot;lark-record-clipboard&quot; data-lark-record-format=&quot;docx/text&quot; data-lark-record-data=&quot;{&amp;quot;rootId&amp;quot;:&amp;quot;FFf3dKYjiomsXBxuDeccj9uYnKd&amp;quot;,&amp;quot;text&amp;quot;:{&amp;quot;initialAttributedTexts&amp;quot;:{&amp;quot;text&amp;quot;:{&amp;quot;0&amp;quot;:&amp;quot;master_dispatch&amp;quot;},&amp;quot;attribs&amp;quot;:{&amp;quot;0&amp;quot;:&amp;quot;*0+f&amp;quot;}},&amp;quot;apool&amp;quot;:{&amp;quot;numToAttrib&amp;quot;:{&amp;quot;0&amp;quot;:[&amp;quot;author&amp;quot;,&amp;quot;7477387424709328915&amp;quot;]},&amp;quot;nextNum&amp;quot;:1}},&amp;quot;type&amp;quot;:&amp;quot;text&amp;quot;,&amp;quot;referenceRecordMap&amp;quot;:{},&amp;quot;extra&amp;quot;:{&amp;quot;channel&amp;quot;:&amp;quot;saas&amp;quot;,&amp;quot;isEqualBlockSelection&amp;quot;:false,&amp;quot;pasteRandomId&amp;quot;:&amp;quot;3a9d1445-7dd4-4d2e-8f2d-b5e68322a748&amp;quot;,&amp;quot;mention_page_title&amp;quot;:{},&amp;quot;external_mention_url&amp;quot;:{}},&amp;quot;isKeepQuoteContainer&amp;quot;:false,&amp;quot;isFromCode&amp;quot;:true,&amp;quot;selection&amp;quot;:[{&amp;quot;id&amp;quot;:35,&amp;quot;type&amp;quot;:&amp;quot;text&amp;quot;,&amp;quot;selection&amp;quot;:{&amp;quot;start&amp;quot;:28,&amp;quot;end&amp;quot;:43},&amp;quot;recordId&amp;quot;:&amp;quot;VEfAdGlELorIsYx347QcFnDenlb&amp;quot;}],&amp;quot;payloadMap&amp;quot;:{},&amp;quot;isCut&amp;quot;:false}&quot;&gt;&lt;/span&gt;" style="text;html=1;align=center;verticalAlign=middle;whiteSpace=wrap;rounded=0;" parent="g_lak4xknPb3sHyO11MJ-92" vertex="1">
          <mxGeometry x="94.25" y="120" width="90" height="30" as="geometry" />
        </mxCell>
        <mxCell id="g_lak4xknPb3sHyO11MJ-95" style="edgeStyle=orthogonalEdgeStyle;rounded=0;orthogonalLoop=1;jettySize=auto;html=1;exitX=0.5;exitY=1;exitDx=0;exitDy=0;entryX=0.5;entryY=0;entryDx=0;entryDy=0;" parent="g_lak4xknPb3sHyO11MJ-92" source="g_lak4xknPb3sHyO11MJ-94" target="g_lak4xknPb3sHyO11MJ-71" edge="1">
          <mxGeometry relative="1" as="geometry" />
        </mxCell>
        <mxCell id="g_lak4xknPb3sHyO11MJ-118" style="edgeStyle=orthogonalEdgeStyle;rounded=0;orthogonalLoop=1;jettySize=auto;html=1;exitX=0;exitY=0.5;exitDx=0;exitDy=0;entryX=1;entryY=0.75;entryDx=0;entryDy=0;" parent="g_lak4xknPb3sHyO11MJ-92" source="g_lak4xknPb3sHyO11MJ-87" target="g_lak4xknPb3sHyO11MJ-67" edge="1">
          <mxGeometry relative="1" as="geometry">
            <Array as="points">
              <mxPoint x="280" y="235" />
              <mxPoint x="280" y="213" />
            </Array>
          </mxGeometry>
        </mxCell>
        <mxCell id="g_lak4xknPb3sHyO11MJ-87" value="&lt;div data-docx-has-block-data=&quot;false&quot; data-lark-html-role=&quot;root&quot; data-page-id=&quot;FFf3dKYjiomsXBxuDeccj9uYnKd&quot;&gt;&lt;div class=&quot;old-record-id-VEfAdGlELorIsYx347QcFnDenlb&quot; style=&quot;white-space:pre;&quot;&gt;&lt;div data-docx-has-block-data=&quot;false&quot; data-lark-html-role=&quot;root&quot; data-page-id=&quot;FFf3dKYjiomsXBxuDeccj9uYnKd&quot;&gt;&lt;div class=&quot;old-record-id-PUSNd8Cdko4FATxJq5JcLycXnTx&quot;&gt;tran&lt;/div&gt;&lt;/div&gt;&lt;span class=&quot;lark-record-clipboard&quot; data-lark-record-format=&quot;docx/text&quot; data-lark-record-data=&quot;{&amp;quot;rootId&amp;quot;:&amp;quot;FFf3dKYjiomsXBxuDeccj9uYnKd&amp;quot;,&amp;quot;text&amp;quot;:{&amp;quot;initialAttributedTexts&amp;quot;:{&amp;quot;text&amp;quot;:{&amp;quot;0&amp;quot;:&amp;quot;evt_publish(EVT_STEP_NEXT)&amp;quot;},&amp;quot;attribs&amp;quot;:{&amp;quot;0&amp;quot;:&amp;quot;*0+q&amp;quot;}},&amp;quot;apool&amp;quot;:{&amp;quot;numToAttrib&amp;quot;:{&amp;quot;0&amp;quot;:[&amp;quot;author&amp;quot;,&amp;quot;7477387424709328915&amp;quot;]},&amp;quot;nextNum&amp;quot;:1}},&amp;quot;type&amp;quot;:&amp;quot;text&amp;quot;,&amp;quot;referenceRecordMap&amp;quot;:{},&amp;quot;extra&amp;quot;:{&amp;quot;channel&amp;quot;:&amp;quot;saas&amp;quot;,&amp;quot;isEqualBlockSelection&amp;quot;:false,&amp;quot;pasteRandomId&amp;quot;:&amp;quot;6ae9989c-4363-4ca6-9e73-56ac55c976ef&amp;quot;,&amp;quot;mention_page_title&amp;quot;:{},&amp;quot;external_mention_url&amp;quot;:{}},&amp;quot;isKeepQuoteContainer&amp;quot;:false,&amp;quot;isFromCode&amp;quot;:true,&amp;quot;selection&amp;quot;:[{&amp;quot;id&amp;quot;:32,&amp;quot;type&amp;quot;:&amp;quot;text&amp;quot;,&amp;quot;selection&amp;quot;:{&amp;quot;start&amp;quot;:31,&amp;quot;end&amp;quot;:57},&amp;quot;recordId&amp;quot;:&amp;quot;PUSNd8Cdko4FATxJq5JcLycXnTx&amp;quot;}],&amp;quot;payloadMap&amp;quot;:{},&amp;quot;isCut&amp;quot;:false}&quot;&gt;&lt;/span&gt;&lt;/div&gt;&lt;/div&gt;&lt;span class=&quot;lark-record-clipboard&quot; data-lark-record-format=&quot;docx/text&quot; data-lark-record-data=&quot;{&amp;quot;rootId&amp;quot;:&amp;quot;FFf3dKYjiomsXBxuDeccj9uYnKd&amp;quot;,&amp;quot;text&amp;quot;:{&amp;quot;initialAttributedTexts&amp;quot;:{&amp;quot;text&amp;quot;:{&amp;quot;0&amp;quot;:&amp;quot;master_dispatch&amp;quot;},&amp;quot;attribs&amp;quot;:{&amp;quot;0&amp;quot;:&amp;quot;*0+f&amp;quot;}},&amp;quot;apool&amp;quot;:{&amp;quot;numToAttrib&amp;quot;:{&amp;quot;0&amp;quot;:[&amp;quot;author&amp;quot;,&amp;quot;7477387424709328915&amp;quot;]},&amp;quot;nextNum&amp;quot;:1}},&amp;quot;type&amp;quot;:&amp;quot;text&amp;quot;,&amp;quot;referenceRecordMap&amp;quot;:{},&amp;quot;extra&amp;quot;:{&amp;quot;channel&amp;quot;:&amp;quot;saas&amp;quot;,&amp;quot;isEqualBlockSelection&amp;quot;:false,&amp;quot;pasteRandomId&amp;quot;:&amp;quot;3a9d1445-7dd4-4d2e-8f2d-b5e68322a748&amp;quot;,&amp;quot;mention_page_title&amp;quot;:{},&amp;quot;external_mention_url&amp;quot;:{}},&amp;quot;isKeepQuoteContainer&amp;quot;:false,&amp;quot;isFromCode&amp;quot;:true,&amp;quot;selection&amp;quot;:[{&amp;quot;id&amp;quot;:35,&amp;quot;type&amp;quot;:&amp;quot;text&amp;quot;,&amp;quot;selection&amp;quot;:{&amp;quot;start&amp;quot;:28,&amp;quot;end&amp;quot;:43},&amp;quot;recordId&amp;quot;:&amp;quot;VEfAdGlELorIsYx347QcFnDenlb&amp;quot;}],&amp;quot;payloadMap&amp;quot;:{},&amp;quot;isCut&amp;quot;:false}&quot;&gt;&lt;/span&gt;" style="text;html=1;align=center;verticalAlign=middle;whiteSpace=wrap;rounded=0;" parent="g_lak4xknPb3sHyO11MJ-92" vertex="1">
          <mxGeometry x="312.12" y="220" width="49.25" height="30" as="geometry" />
        </mxCell>
        <mxCell id="g_lak4xknPb3sHyO11MJ-93" value="Async ACK node" style="text;html=1;align=center;verticalAlign=middle;whiteSpace=wrap;rounded=0;" parent="1" vertex="1">
          <mxGeometry x="118.75" y="750" width="111.25" height="30" as="geometry" />
        </mxCell>
        <mxCell id="g_lak4xknPb3sHyO11MJ-96" value="" style="swimlane;startSize=0;" parent="1" vertex="1">
          <mxGeometry x="130" y="1120" width="530" height="300" as="geometry" />
        </mxCell>
        <mxCell id="g_lak4xknPb3sHyO11MJ-97" style="edgeStyle=orthogonalEdgeStyle;rounded=0;orthogonalLoop=1;jettySize=auto;html=1;exitX=1;exitY=0.5;exitDx=0;exitDy=0;entryX=0;entryY=0.5;entryDx=0;entryDy=0;" parent="g_lak4xknPb3sHyO11MJ-96" source="g_lak4xknPb3sHyO11MJ-98" target="g_lak4xknPb3sHyO11MJ-104" edge="1">
          <mxGeometry relative="1" as="geometry">
            <Array as="points">
              <mxPoint x="214.25" y="205" />
              <mxPoint x="214.25" y="155" />
            </Array>
          </mxGeometry>
        </mxCell>
        <mxCell id="g_lak4xknPb3sHyO11MJ-117" style="edgeStyle=orthogonalEdgeStyle;rounded=0;orthogonalLoop=1;jettySize=auto;html=1;exitX=0.5;exitY=1;exitDx=0;exitDy=0;" parent="g_lak4xknPb3sHyO11MJ-96" source="g_lak4xknPb3sHyO11MJ-98" target="g_lak4xknPb3sHyO11MJ-96" edge="1">
          <mxGeometry relative="1" as="geometry">
            <Array as="points">
              <mxPoint x="130" y="280" />
              <mxPoint x="130" y="280" />
            </Array>
          </mxGeometry>
        </mxCell>
        <mxCell id="g_lak4xknPb3sHyO11MJ-98" value="&lt;div data-docx-has-block-data=&quot;false&quot; data-lark-html-role=&quot;root&quot; data-page-id=&quot;FFf3dKYjiomsXBxuDeccj9uYnKd&quot;&gt;&lt;div class=&quot;old-record-id-VEfAdGlELorIsYx347QcFnDenlb&quot; style=&quot;white-space:pre;&quot;&gt;master_dispatch&lt;/div&gt;&lt;/div&gt;&lt;span class=&quot;lark-record-clipboard&quot; data-lark-record-format=&quot;docx/text&quot; data-lark-record-data=&quot;{&amp;quot;rootId&amp;quot;:&amp;quot;FFf3dKYjiomsXBxuDeccj9uYnKd&amp;quot;,&amp;quot;text&amp;quot;:{&amp;quot;initialAttributedTexts&amp;quot;:{&amp;quot;text&amp;quot;:{&amp;quot;0&amp;quot;:&amp;quot;master_dispatch&amp;quot;},&amp;quot;attribs&amp;quot;:{&amp;quot;0&amp;quot;:&amp;quot;*0+f&amp;quot;}},&amp;quot;apool&amp;quot;:{&amp;quot;numToAttrib&amp;quot;:{&amp;quot;0&amp;quot;:[&amp;quot;author&amp;quot;,&amp;quot;7477387424709328915&amp;quot;]},&amp;quot;nextNum&amp;quot;:1}},&amp;quot;type&amp;quot;:&amp;quot;text&amp;quot;,&amp;quot;referenceRecordMap&amp;quot;:{},&amp;quot;extra&amp;quot;:{&amp;quot;channel&amp;quot;:&amp;quot;saas&amp;quot;,&amp;quot;isEqualBlockSelection&amp;quot;:false,&amp;quot;pasteRandomId&amp;quot;:&amp;quot;3a9d1445-7dd4-4d2e-8f2d-b5e68322a748&amp;quot;,&amp;quot;mention_page_title&amp;quot;:{},&amp;quot;external_mention_url&amp;quot;:{}},&amp;quot;isKeepQuoteContainer&amp;quot;:false,&amp;quot;isFromCode&amp;quot;:true,&amp;quot;selection&amp;quot;:[{&amp;quot;id&amp;quot;:35,&amp;quot;type&amp;quot;:&amp;quot;text&amp;quot;,&amp;quot;selection&amp;quot;:{&amp;quot;start&amp;quot;:28,&amp;quot;end&amp;quot;:43},&amp;quot;recordId&amp;quot;:&amp;quot;VEfAdGlELorIsYx347QcFnDenlb&amp;quot;}],&amp;quot;payloadMap&amp;quot;:{},&amp;quot;isCut&amp;quot;:false}&quot;&gt;&lt;/span&gt;" style="text;html=1;align=center;verticalAlign=middle;whiteSpace=wrap;rounded=0;" parent="g_lak4xknPb3sHyO11MJ-96" vertex="1">
          <mxGeometry x="94.25" y="190" width="90" height="30" as="geometry" />
        </mxCell>
        <mxCell id="g_lak4xknPb3sHyO11MJ-99" style="edgeStyle=orthogonalEdgeStyle;rounded=0;orthogonalLoop=1;jettySize=auto;html=1;exitX=0.5;exitY=1;exitDx=0;exitDy=0;entryX=0.5;entryY=0;entryDx=0;entryDy=0;" parent="g_lak4xknPb3sHyO11MJ-96" source="g_lak4xknPb3sHyO11MJ-111" target="g_lak4xknPb3sHyO11MJ-98" edge="1">
          <mxGeometry relative="1" as="geometry" />
        </mxCell>
        <mxCell id="g_lak4xknPb3sHyO11MJ-100" value="" style="swimlane;startSize=0;" parent="g_lak4xknPb3sHyO11MJ-96" vertex="1">
          <mxGeometry x="33" y="80" width="212.5" height="150" as="geometry">
            <mxRectangle x="147.5" y="440" width="50" height="40" as="alternateBounds" />
          </mxGeometry>
        </mxCell>
        <mxCell id="g_lak4xknPb3sHyO11MJ-101" value="EVT_LOOP" style="text;html=1;align=center;verticalAlign=middle;whiteSpace=wrap;rounded=0;" parent="g_lak4xknPb3sHyO11MJ-100" vertex="1">
          <mxGeometry x="11.25" y="10" width="70" height="20" as="geometry" />
        </mxCell>
        <mxCell id="g_lak4xknPb3sHyO11MJ-102" style="edgeStyle=orthogonalEdgeStyle;rounded=0;orthogonalLoop=1;jettySize=auto;html=1;exitX=0.5;exitY=1;exitDx=0;exitDy=0;entryX=0.5;entryY=0;entryDx=0;entryDy=0;" parent="g_lak4xknPb3sHyO11MJ-96" source="g_lak4xknPb3sHyO11MJ-104" edge="1">
          <mxGeometry relative="1" as="geometry">
            <mxPoint x="336.7500000000002" y="220.00000000000023" as="targetPoint" />
          </mxGeometry>
        </mxCell>
        <mxCell id="g_lak4xknPb3sHyO11MJ-103" style="edgeStyle=orthogonalEdgeStyle;rounded=0;orthogonalLoop=1;jettySize=auto;html=1;exitX=1;exitY=0.5;exitDx=0;exitDy=0;" parent="g_lak4xknPb3sHyO11MJ-96" source="g_lak4xknPb3sHyO11MJ-104" target="g_lak4xknPb3sHyO11MJ-107" edge="1">
          <mxGeometry relative="1" as="geometry" />
        </mxCell>
        <mxCell id="g_lak4xknPb3sHyO11MJ-104" value="curr.dispatch" style="text;html=1;align=center;verticalAlign=middle;whiteSpace=wrap;rounded=0;" parent="g_lak4xknPb3sHyO11MJ-96" vertex="1">
          <mxGeometry x="294.25" y="140" width="85" height="30" as="geometry" />
        </mxCell>
        <mxCell id="g_lak4xknPb3sHyO11MJ-105" value="OK" style="text;html=1;align=center;verticalAlign=middle;whiteSpace=wrap;rounded=0;" parent="g_lak4xknPb3sHyO11MJ-96" vertex="1">
          <mxGeometry x="294.25" y="180" width="46" height="20" as="geometry" />
        </mxCell>
        <mxCell id="g_lak4xknPb3sHyO11MJ-106" style="edgeStyle=orthogonalEdgeStyle;rounded=0;orthogonalLoop=1;jettySize=auto;html=1;exitX=0.5;exitY=0;exitDx=0;exitDy=0;entryX=0.5;entryY=0;entryDx=0;entryDy=0;" parent="g_lak4xknPb3sHyO11MJ-96" source="g_lak4xknPb3sHyO11MJ-107" target="g_lak4xknPb3sHyO11MJ-104" edge="1">
          <mxGeometry relative="1" as="geometry">
            <Array as="points">
              <mxPoint x="464.25" y="110" />
              <mxPoint x="337.25" y="110" />
            </Array>
          </mxGeometry>
        </mxCell>
        <mxCell id="g_lak4xknPb3sHyO11MJ-107" value="curr = curr.super" style="text;html=1;align=center;verticalAlign=middle;whiteSpace=wrap;rounded=0;" parent="g_lak4xknPb3sHyO11MJ-96" vertex="1">
          <mxGeometry x="414.25" y="145" width="100" height="20" as="geometry" />
        </mxCell>
        <mxCell id="g_lak4xknPb3sHyO11MJ-108" value="NG" style="text;html=1;align=center;verticalAlign=middle;whiteSpace=wrap;rounded=0;" parent="g_lak4xknPb3sHyO11MJ-96" vertex="1">
          <mxGeometry x="368.25" y="130" width="46" height="20" as="geometry" />
        </mxCell>
        <mxCell id="g_lak4xknPb3sHyO11MJ-109" value="Over Temp" style="text;html=1;align=center;verticalAlign=middle;whiteSpace=wrap;rounded=0;" parent="g_lak4xknPb3sHyO11MJ-96" vertex="1">
          <mxGeometry x="61.75" y="150" width="71.25" height="30" as="geometry" />
        </mxCell>
        <mxCell id="g_lak4xknPb3sHyO11MJ-110" value="curr=x_wait" style="text;html=1;align=center;verticalAlign=middle;whiteSpace=wrap;rounded=0;" parent="g_lak4xknPb3sHyO11MJ-96" vertex="1">
          <mxGeometry x="109.25" y="10" width="60" height="30" as="geometry" />
        </mxCell>
        <mxCell id="g_lak4xknPb3sHyO11MJ-111" value="&lt;div data-docx-has-block-data=&quot;false&quot; data-lark-html-role=&quot;root&quot; data-page-id=&quot;FFf3dKYjiomsXBxuDeccj9uYnKd&quot;&gt;&lt;div class=&quot;old-record-id-VEfAdGlELorIsYx347QcFnDenlb&quot; style=&quot;white-space:pre;&quot;&gt;&lt;div data-docx-has-block-data=&quot;false&quot; data-lark-html-role=&quot;root&quot; data-page-id=&quot;FFf3dKYjiomsXBxuDeccj9uYnKd&quot;&gt;&lt;div class=&quot;old-record-id-PUSNd8Cdko4FATxJq5JcLycXnTx&quot;&gt;evt_get&lt;/div&gt;&lt;/div&gt;&lt;span class=&quot;lark-record-clipboard&quot; data-lark-record-format=&quot;docx/text&quot; data-lark-record-data=&quot;{&amp;quot;rootId&amp;quot;:&amp;quot;FFf3dKYjiomsXBxuDeccj9uYnKd&amp;quot;,&amp;quot;text&amp;quot;:{&amp;quot;initialAttributedTexts&amp;quot;:{&amp;quot;text&amp;quot;:{&amp;quot;0&amp;quot;:&amp;quot;evt_get&amp;quot;},&amp;quot;attribs&amp;quot;:{&amp;quot;0&amp;quot;:&amp;quot;*0+7&amp;quot;}},&amp;quot;apool&amp;quot;:{&amp;quot;numToAttrib&amp;quot;:{&amp;quot;0&amp;quot;:[&amp;quot;author&amp;quot;,&amp;quot;7477387424709328915&amp;quot;]},&amp;quot;nextNum&amp;quot;:1}},&amp;quot;type&amp;quot;:&amp;quot;text&amp;quot;,&amp;quot;referenceRecordMap&amp;quot;:{},&amp;quot;extra&amp;quot;:{&amp;quot;channel&amp;quot;:&amp;quot;saas&amp;quot;,&amp;quot;isEqualBlockSelection&amp;quot;:false,&amp;quot;pasteRandomId&amp;quot;:&amp;quot;74d30f30-1e0a-42d6-9610-fc32154891e5&amp;quot;,&amp;quot;mention_page_title&amp;quot;:{},&amp;quot;external_mention_url&amp;quot;:{}},&amp;quot;isKeepQuoteContainer&amp;quot;:false,&amp;quot;isFromCode&amp;quot;:true,&amp;quot;selection&amp;quot;:[{&amp;quot;id&amp;quot;:32,&amp;quot;type&amp;quot;:&amp;quot;text&amp;quot;,&amp;quot;selection&amp;quot;:{&amp;quot;start&amp;quot;:133,&amp;quot;end&amp;quot;:140},&amp;quot;recordId&amp;quot;:&amp;quot;PUSNd8Cdko4FATxJq5JcLycXnTx&amp;quot;}],&amp;quot;payloadMap&amp;quot;:{},&amp;quot;isCut&amp;quot;:false}&quot;&gt;&lt;/span&gt;&lt;/div&gt;&lt;/div&gt;&lt;span class=&quot;lark-record-clipboard&quot; data-lark-record-format=&quot;docx/text&quot; data-lark-record-data=&quot;{&amp;quot;rootId&amp;quot;:&amp;quot;FFf3dKYjiomsXBxuDeccj9uYnKd&amp;quot;,&amp;quot;text&amp;quot;:{&amp;quot;initialAttributedTexts&amp;quot;:{&amp;quot;text&amp;quot;:{&amp;quot;0&amp;quot;:&amp;quot;master_dispatch&amp;quot;},&amp;quot;attribs&amp;quot;:{&amp;quot;0&amp;quot;:&amp;quot;*0+f&amp;quot;}},&amp;quot;apool&amp;quot;:{&amp;quot;numToAttrib&amp;quot;:{&amp;quot;0&amp;quot;:[&amp;quot;author&amp;quot;,&amp;quot;7477387424709328915&amp;quot;]},&amp;quot;nextNum&amp;quot;:1}},&amp;quot;type&amp;quot;:&amp;quot;text&amp;quot;,&amp;quot;referenceRecordMap&amp;quot;:{},&amp;quot;extra&amp;quot;:{&amp;quot;channel&amp;quot;:&amp;quot;saas&amp;quot;,&amp;quot;isEqualBlockSelection&amp;quot;:false,&amp;quot;pasteRandomId&amp;quot;:&amp;quot;3a9d1445-7dd4-4d2e-8f2d-b5e68322a748&amp;quot;,&amp;quot;mention_page_title&amp;quot;:{},&amp;quot;external_mention_url&amp;quot;:{}},&amp;quot;isKeepQuoteContainer&amp;quot;:false,&amp;quot;isFromCode&amp;quot;:true,&amp;quot;selection&amp;quot;:[{&amp;quot;id&amp;quot;:35,&amp;quot;type&amp;quot;:&amp;quot;text&amp;quot;,&amp;quot;selection&amp;quot;:{&amp;quot;start&amp;quot;:28,&amp;quot;end&amp;quot;:43},&amp;quot;recordId&amp;quot;:&amp;quot;VEfAdGlELorIsYx347QcFnDenlb&amp;quot;}],&amp;quot;payloadMap&amp;quot;:{},&amp;quot;isCut&amp;quot;:false}&quot;&gt;&lt;/span&gt;" style="text;html=1;align=center;verticalAlign=middle;whiteSpace=wrap;rounded=0;" parent="g_lak4xknPb3sHyO11MJ-96" vertex="1">
          <mxGeometry x="94.25" y="120" width="90" height="30" as="geometry" />
        </mxCell>
        <mxCell id="g_lak4xknPb3sHyO11MJ-112" style="edgeStyle=orthogonalEdgeStyle;rounded=0;orthogonalLoop=1;jettySize=auto;html=1;exitX=0.5;exitY=1;exitDx=0;exitDy=0;entryX=0.5;entryY=0;entryDx=0;entryDy=0;" parent="g_lak4xknPb3sHyO11MJ-96" source="g_lak4xknPb3sHyO11MJ-110" target="g_lak4xknPb3sHyO11MJ-111" edge="1">
          <mxGeometry relative="1" as="geometry" />
        </mxCell>
        <mxCell id="g_lak4xknPb3sHyO11MJ-116" style="edgeStyle=orthogonalEdgeStyle;rounded=0;orthogonalLoop=1;jettySize=auto;html=1;exitX=0;exitY=0.5;exitDx=0;exitDy=0;entryX=1;entryY=0.75;entryDx=0;entryDy=0;" parent="g_lak4xknPb3sHyO11MJ-96" source="g_lak4xknPb3sHyO11MJ-113" target="g_lak4xknPb3sHyO11MJ-98" edge="1">
          <mxGeometry relative="1" as="geometry">
            <Array as="points">
              <mxPoint x="290" y="235" />
              <mxPoint x="290" y="213" />
            </Array>
          </mxGeometry>
        </mxCell>
        <mxCell id="g_lak4xknPb3sHyO11MJ-113" value="&lt;div data-docx-has-block-data=&quot;false&quot; data-lark-html-role=&quot;root&quot; data-page-id=&quot;FFf3dKYjiomsXBxuDeccj9uYnKd&quot;&gt;&lt;div class=&quot;old-record-id-VEfAdGlELorIsYx347QcFnDenlb&quot; style=&quot;white-space:pre;&quot;&gt;&lt;div data-docx-has-block-data=&quot;false&quot; data-lark-html-role=&quot;root&quot; data-page-id=&quot;FFf3dKYjiomsXBxuDeccj9uYnKd&quot;&gt;&lt;div class=&quot;old-record-id-PUSNd8Cdko4FATxJq5JcLycXnTx&quot;&gt;tran&lt;/div&gt;&lt;/div&gt;&lt;span class=&quot;lark-record-clipboard&quot; data-lark-record-format=&quot;docx/text&quot; data-lark-record-data=&quot;{&amp;quot;rootId&amp;quot;:&amp;quot;FFf3dKYjiomsXBxuDeccj9uYnKd&amp;quot;,&amp;quot;text&amp;quot;:{&amp;quot;initialAttributedTexts&amp;quot;:{&amp;quot;text&amp;quot;:{&amp;quot;0&amp;quot;:&amp;quot;evt_publish(EVT_STEP_NEXT)&amp;quot;},&amp;quot;attribs&amp;quot;:{&amp;quot;0&amp;quot;:&amp;quot;*0+q&amp;quot;}},&amp;quot;apool&amp;quot;:{&amp;quot;numToAttrib&amp;quot;:{&amp;quot;0&amp;quot;:[&amp;quot;author&amp;quot;,&amp;quot;7477387424709328915&amp;quot;]},&amp;quot;nextNum&amp;quot;:1}},&amp;quot;type&amp;quot;:&amp;quot;text&amp;quot;,&amp;quot;referenceRecordMap&amp;quot;:{},&amp;quot;extra&amp;quot;:{&amp;quot;channel&amp;quot;:&amp;quot;saas&amp;quot;,&amp;quot;isEqualBlockSelection&amp;quot;:false,&amp;quot;pasteRandomId&amp;quot;:&amp;quot;6ae9989c-4363-4ca6-9e73-56ac55c976ef&amp;quot;,&amp;quot;mention_page_title&amp;quot;:{},&amp;quot;external_mention_url&amp;quot;:{}},&amp;quot;isKeepQuoteContainer&amp;quot;:false,&amp;quot;isFromCode&amp;quot;:true,&amp;quot;selection&amp;quot;:[{&amp;quot;id&amp;quot;:32,&amp;quot;type&amp;quot;:&amp;quot;text&amp;quot;,&amp;quot;selection&amp;quot;:{&amp;quot;start&amp;quot;:31,&amp;quot;end&amp;quot;:57},&amp;quot;recordId&amp;quot;:&amp;quot;PUSNd8Cdko4FATxJq5JcLycXnTx&amp;quot;}],&amp;quot;payloadMap&amp;quot;:{},&amp;quot;isCut&amp;quot;:false}&quot;&gt;&lt;/span&gt;&lt;/div&gt;&lt;/div&gt;&lt;span class=&quot;lark-record-clipboard&quot; data-lark-record-format=&quot;docx/text&quot; data-lark-record-data=&quot;{&amp;quot;rootId&amp;quot;:&amp;quot;FFf3dKYjiomsXBxuDeccj9uYnKd&amp;quot;,&amp;quot;text&amp;quot;:{&amp;quot;initialAttributedTexts&amp;quot;:{&amp;quot;text&amp;quot;:{&amp;quot;0&amp;quot;:&amp;quot;master_dispatch&amp;quot;},&amp;quot;attribs&amp;quot;:{&amp;quot;0&amp;quot;:&amp;quot;*0+f&amp;quot;}},&amp;quot;apool&amp;quot;:{&amp;quot;numToAttrib&amp;quot;:{&amp;quot;0&amp;quot;:[&amp;quot;author&amp;quot;,&amp;quot;7477387424709328915&amp;quot;]},&amp;quot;nextNum&amp;quot;:1}},&amp;quot;type&amp;quot;:&amp;quot;text&amp;quot;,&amp;quot;referenceRecordMap&amp;quot;:{},&amp;quot;extra&amp;quot;:{&amp;quot;channel&amp;quot;:&amp;quot;saas&amp;quot;,&amp;quot;isEqualBlockSelection&amp;quot;:false,&amp;quot;pasteRandomId&amp;quot;:&amp;quot;3a9d1445-7dd4-4d2e-8f2d-b5e68322a748&amp;quot;,&amp;quot;mention_page_title&amp;quot;:{},&amp;quot;external_mention_url&amp;quot;:{}},&amp;quot;isKeepQuoteContainer&amp;quot;:false,&amp;quot;isFromCode&amp;quot;:true,&amp;quot;selection&amp;quot;:[{&amp;quot;id&amp;quot;:35,&amp;quot;type&amp;quot;:&amp;quot;text&amp;quot;,&amp;quot;selection&amp;quot;:{&amp;quot;start&amp;quot;:28,&amp;quot;end&amp;quot;:43},&amp;quot;recordId&amp;quot;:&amp;quot;VEfAdGlELorIsYx347QcFnDenlb&amp;quot;}],&amp;quot;payloadMap&amp;quot;:{},&amp;quot;isCut&amp;quot;:false}&quot;&gt;&lt;/span&gt;" style="text;html=1;align=center;verticalAlign=middle;whiteSpace=wrap;rounded=0;" parent="g_lak4xknPb3sHyO11MJ-96" vertex="1">
          <mxGeometry x="313.88" y="220" width="45.75" height="30" as="geometry" />
        </mxCell>
        <mxCell id="g_lak4xknPb3sHyO11MJ-114" value="Error Handle" style="text;html=1;align=center;verticalAlign=middle;whiteSpace=wrap;rounded=0;" parent="1" vertex="1">
          <mxGeometry x="110" y="1090" width="111.25" height="30" as="geometry" />
        </mxCell>
        <mxCell id="Vf78qzVgOP0ZEJe4a__N-12" style="edgeStyle=orthogonalEdgeStyle;rounded=0;orthogonalLoop=1;jettySize=auto;html=1;exitX=1;exitY=0.5;exitDx=0;exitDy=0;entryX=0;entryY=0.5;entryDx=0;entryDy=0;" edge="1" parent="1" source="Vf78qzVgOP0ZEJe4a__N-1" target="Vf78qzVgOP0ZEJe4a__N-2">
          <mxGeometry relative="1" as="geometry" />
        </mxCell>
        <mxCell id="Vf78qzVgOP0ZEJe4a__N-1" value="Objdic mutex" style="rounded=1;whiteSpace=wrap;html=1;" vertex="1" parent="1">
          <mxGeometry x="190" y="1610" width="120" height="60" as="geometry" />
        </mxCell>
        <mxCell id="Vf78qzVgOP0ZEJe4a__N-13" style="edgeStyle=orthogonalEdgeStyle;rounded=0;orthogonalLoop=1;jettySize=auto;html=1;exitX=0.5;exitY=1;exitDx=0;exitDy=0;entryX=0.5;entryY=0;entryDx=0;entryDy=0;" edge="1" parent="1" source="Vf78qzVgOP0ZEJe4a__N-2" target="Vf78qzVgOP0ZEJe4a__N-3">
          <mxGeometry relative="1" as="geometry" />
        </mxCell>
        <mxCell id="Vf78qzVgOP0ZEJe4a__N-2" value="pos filter" style="rounded=1;whiteSpace=wrap;html=1;" vertex="1" parent="1">
          <mxGeometry x="338.75" y="1610" width="120" height="60" as="geometry" />
        </mxCell>
        <mxCell id="Vf78qzVgOP0ZEJe4a__N-14" style="edgeStyle=orthogonalEdgeStyle;rounded=0;orthogonalLoop=1;jettySize=auto;html=1;exitX=1;exitY=0.5;exitDx=0;exitDy=0;entryX=0;entryY=0.5;entryDx=0;entryDy=0;" edge="1" parent="1" source="Vf78qzVgOP0ZEJe4a__N-3" target="Vf78qzVgOP0ZEJe4a__N-4">
          <mxGeometry relative="1" as="geometry" />
        </mxCell>
        <mxCell id="Vf78qzVgOP0ZEJe4a__N-3" value="pos filter ack" style="rounded=1;whiteSpace=wrap;html=1;" vertex="1" parent="1">
          <mxGeometry x="338.75" y="1700" width="120" height="60" as="geometry" />
        </mxCell>
        <mxCell id="Vf78qzVgOP0ZEJe4a__N-15" style="edgeStyle=orthogonalEdgeStyle;rounded=0;orthogonalLoop=1;jettySize=auto;html=1;exitX=0.5;exitY=1;exitDx=0;exitDy=0;entryX=0.5;entryY=0;entryDx=0;entryDy=0;" edge="1" parent="1" source="Vf78qzVgOP0ZEJe4a__N-4" target="Vf78qzVgOP0ZEJe4a__N-5">
          <mxGeometry relative="1" as="geometry" />
        </mxCell>
        <mxCell id="Vf78qzVgOP0ZEJe4a__N-4" value="sin level" style="rounded=1;whiteSpace=wrap;html=1;" vertex="1" parent="1">
          <mxGeometry x="500" y="1610" width="120" height="60" as="geometry" />
        </mxCell>
        <mxCell id="Vf78qzVgOP0ZEJe4a__N-63" style="edgeStyle=orthogonalEdgeStyle;rounded=0;orthogonalLoop=1;jettySize=auto;html=1;exitX=1;exitY=0.5;exitDx=0;exitDy=0;entryX=0;entryY=0.5;entryDx=0;entryDy=0;fillColor=#d5e8d4;strokeColor=#82b366;" edge="1" parent="1" source="Vf78qzVgOP0ZEJe4a__N-5" target="Vf78qzVgOP0ZEJe4a__N-6">
          <mxGeometry relative="1" as="geometry">
            <Array as="points">
              <mxPoint x="668.75" y="1730" />
              <mxPoint x="668.75" y="1780" />
            </Array>
          </mxGeometry>
        </mxCell>
        <mxCell id="Vf78qzVgOP0ZEJe4a__N-5" value="sin level ack" style="rounded=1;whiteSpace=wrap;html=1;" vertex="1" parent="1">
          <mxGeometry x="500" y="1700" width="120" height="60" as="geometry" />
        </mxCell>
        <mxCell id="Vf78qzVgOP0ZEJe4a__N-17" style="edgeStyle=orthogonalEdgeStyle;rounded=0;orthogonalLoop=1;jettySize=auto;html=1;exitX=0.5;exitY=1;exitDx=0;exitDy=0;entryX=0.5;entryY=0;entryDx=0;entryDy=0;" edge="1" parent="1" source="Vf78qzVgOP0ZEJe4a__N-6" target="Vf78qzVgOP0ZEJe4a__N-7">
          <mxGeometry relative="1" as="geometry" />
        </mxCell>
        <mxCell id="Vf78qzVgOP0ZEJe4a__N-6" value="drag" style="rounded=1;whiteSpace=wrap;html=1;" vertex="1" parent="1">
          <mxGeometry x="1378.75" y="1750" width="120" height="60" as="geometry" />
        </mxCell>
        <mxCell id="Vf78qzVgOP0ZEJe4a__N-64" style="edgeStyle=orthogonalEdgeStyle;rounded=0;orthogonalLoop=1;jettySize=auto;html=1;exitX=0;exitY=0.5;exitDx=0;exitDy=0;entryX=0;entryY=0.5;entryDx=0;entryDy=0;fillColor=#d5e8d4;strokeColor=#82b366;" edge="1" parent="1" source="Vf78qzVgOP0ZEJe4a__N-7" target="Vf78qzVgOP0ZEJe4a__N-8">
          <mxGeometry relative="1" as="geometry">
            <Array as="points">
              <mxPoint x="718.75" y="1870" />
              <mxPoint x="718.75" y="1640" />
            </Array>
          </mxGeometry>
        </mxCell>
        <mxCell id="Vf78qzVgOP0ZEJe4a__N-66" style="edgeStyle=orthogonalEdgeStyle;rounded=0;orthogonalLoop=1;jettySize=auto;html=1;exitX=0.5;exitY=1;exitDx=0;exitDy=0;entryX=0.5;entryY=0;entryDx=0;entryDy=0;fillColor=#f8cecc;strokeColor=#b85450;" edge="1" parent="1" source="Vf78qzVgOP0ZEJe4a__N-7" target="Vf78qzVgOP0ZEJe4a__N-45">
          <mxGeometry relative="1" as="geometry" />
        </mxCell>
        <mxCell id="Vf78qzVgOP0ZEJe4a__N-7" value="drag ack" style="rounded=1;whiteSpace=wrap;html=1;" vertex="1" parent="1">
          <mxGeometry x="1378.75" y="1840" width="120" height="60" as="geometry" />
        </mxCell>
        <mxCell id="Vf78qzVgOP0ZEJe4a__N-19" style="edgeStyle=orthogonalEdgeStyle;rounded=0;orthogonalLoop=1;jettySize=auto;html=1;exitX=0.5;exitY=1;exitDx=0;exitDy=0;entryX=0.5;entryY=0;entryDx=0;entryDy=0;" edge="1" parent="1" source="Vf78qzVgOP0ZEJe4a__N-8" target="Vf78qzVgOP0ZEJe4a__N-9">
          <mxGeometry relative="1" as="geometry" />
        </mxCell>
        <mxCell id="Vf78qzVgOP0ZEJe4a__N-8" value="Iq" style="rounded=1;whiteSpace=wrap;html=1;" vertex="1" parent="1">
          <mxGeometry x="758.75" y="1610" width="120" height="60" as="geometry" />
        </mxCell>
        <mxCell id="Vf78qzVgOP0ZEJe4a__N-20" style="edgeStyle=orthogonalEdgeStyle;rounded=0;orthogonalLoop=1;jettySize=auto;html=1;exitX=1;exitY=0.5;exitDx=0;exitDy=0;entryX=0;entryY=0.5;entryDx=0;entryDy=0;" edge="1" parent="1" source="Vf78qzVgOP0ZEJe4a__N-9" target="Vf78qzVgOP0ZEJe4a__N-10">
          <mxGeometry relative="1" as="geometry" />
        </mxCell>
        <mxCell id="Vf78qzVgOP0ZEJe4a__N-69" style="edgeStyle=orthogonalEdgeStyle;rounded=0;orthogonalLoop=1;jettySize=auto;html=1;exitX=0.5;exitY=1;exitDx=0;exitDy=0;entryX=0;entryY=0.5;entryDx=0;entryDy=0;fillColor=#dae8fc;strokeColor=#6c8ebf;" edge="1" parent="1" source="Vf78qzVgOP0ZEJe4a__N-9" target="Vf78qzVgOP0ZEJe4a__N-45">
          <mxGeometry relative="1" as="geometry" />
        </mxCell>
        <mxCell id="Vf78qzVgOP0ZEJe4a__N-9" value="Iq ack" style="rounded=1;whiteSpace=wrap;html=1;" vertex="1" parent="1">
          <mxGeometry x="758.75" y="1700" width="120" height="60" as="geometry" />
        </mxCell>
        <mxCell id="Vf78qzVgOP0ZEJe4a__N-21" style="edgeStyle=orthogonalEdgeStyle;rounded=0;orthogonalLoop=1;jettySize=auto;html=1;exitX=0.5;exitY=1;exitDx=0;exitDy=0;entryX=0.5;entryY=0;entryDx=0;entryDy=0;" edge="1" parent="1" source="Vf78qzVgOP0ZEJe4a__N-10" target="Vf78qzVgOP0ZEJe4a__N-11">
          <mxGeometry relative="1" as="geometry" />
        </mxCell>
        <mxCell id="Vf78qzVgOP0ZEJe4a__N-10" value="Check Calib" style="rounded=1;whiteSpace=wrap;html=1;" vertex="1" parent="1">
          <mxGeometry x="918.75" y="1610" width="120" height="60" as="geometry" />
        </mxCell>
        <mxCell id="Vf78qzVgOP0ZEJe4a__N-25" style="edgeStyle=orthogonalEdgeStyle;rounded=0;orthogonalLoop=1;jettySize=auto;html=1;exitX=1;exitY=0.5;exitDx=0;exitDy=0;entryX=0;entryY=0.5;entryDx=0;entryDy=0;" edge="1" parent="1" source="Vf78qzVgOP0ZEJe4a__N-11" target="Vf78qzVgOP0ZEJe4a__N-23">
          <mxGeometry relative="1" as="geometry" />
        </mxCell>
        <mxCell id="Vf78qzVgOP0ZEJe4a__N-11" value="Check Calib&amp;nbsp;ack" style="rounded=1;whiteSpace=wrap;html=1;" vertex="1" parent="1">
          <mxGeometry x="918.75" y="1700" width="120" height="60" as="geometry" />
        </mxCell>
        <mxCell id="Vf78qzVgOP0ZEJe4a__N-22" style="edgeStyle=orthogonalEdgeStyle;rounded=0;orthogonalLoop=1;jettySize=auto;html=1;exitX=0.5;exitY=1;exitDx=0;exitDy=0;entryX=0.5;entryY=0;entryDx=0;entryDy=0;" edge="1" parent="1" source="Vf78qzVgOP0ZEJe4a__N-23" target="Vf78qzVgOP0ZEJe4a__N-24">
          <mxGeometry relative="1" as="geometry" />
        </mxCell>
        <mxCell id="Vf78qzVgOP0ZEJe4a__N-23" value="Motoro Enable" style="rounded=1;whiteSpace=wrap;html=1;" vertex="1" parent="1">
          <mxGeometry x="1118.75" y="1530" width="120" height="60" as="geometry" />
        </mxCell>
        <mxCell id="Vf78qzVgOP0ZEJe4a__N-36" style="edgeStyle=orthogonalEdgeStyle;rounded=0;orthogonalLoop=1;jettySize=auto;html=1;exitX=1;exitY=0.5;exitDx=0;exitDy=0;entryX=0;entryY=0.5;entryDx=0;entryDy=0;" edge="1" parent="1" source="Vf78qzVgOP0ZEJe4a__N-24" target="Vf78qzVgOP0ZEJe4a__N-31">
          <mxGeometry relative="1" as="geometry" />
        </mxCell>
        <mxCell id="Vf78qzVgOP0ZEJe4a__N-24" value="Motoro Enable&amp;nbsp;ack" style="rounded=1;whiteSpace=wrap;html=1;" vertex="1" parent="1">
          <mxGeometry x="1118.75" y="1620" width="120" height="60" as="geometry" />
        </mxCell>
        <mxCell id="Vf78qzVgOP0ZEJe4a__N-26" style="edgeStyle=orthogonalEdgeStyle;rounded=0;orthogonalLoop=1;jettySize=auto;html=1;exitX=0.5;exitY=1;exitDx=0;exitDy=0;entryX=0.5;entryY=0;entryDx=0;entryDy=0;" edge="1" parent="1" source="Vf78qzVgOP0ZEJe4a__N-27" target="Vf78qzVgOP0ZEJe4a__N-28">
          <mxGeometry relative="1" as="geometry" />
        </mxCell>
        <mxCell id="Vf78qzVgOP0ZEJe4a__N-27" value="Openloop" style="rounded=1;whiteSpace=wrap;html=1;" vertex="1" parent="1">
          <mxGeometry x="1598.75" y="1750" width="120" height="60" as="geometry" />
        </mxCell>
        <mxCell id="Vf78qzVgOP0ZEJe4a__N-65" style="edgeStyle=orthogonalEdgeStyle;rounded=0;orthogonalLoop=1;jettySize=auto;html=1;exitX=0;exitY=0.5;exitDx=0;exitDy=0;entryX=1;entryY=0.5;entryDx=0;entryDy=0;fillColor=#f8cecc;strokeColor=#b85450;" edge="1" parent="1" source="Vf78qzVgOP0ZEJe4a__N-28" target="Vf78qzVgOP0ZEJe4a__N-6">
          <mxGeometry relative="1" as="geometry" />
        </mxCell>
        <mxCell id="Vf78qzVgOP0ZEJe4a__N-28" value="Openloop&amp;nbsp;ack" style="rounded=1;whiteSpace=wrap;html=1;" vertex="1" parent="1">
          <mxGeometry x="1598.75" y="1840" width="120" height="60" as="geometry" />
        </mxCell>
        <mxCell id="Vf78qzVgOP0ZEJe4a__N-30" style="edgeStyle=orthogonalEdgeStyle;rounded=0;orthogonalLoop=1;jettySize=auto;html=1;exitX=0.5;exitY=1;exitDx=0;exitDy=0;entryX=0.5;entryY=0;entryDx=0;entryDy=0;" edge="1" parent="1" source="Vf78qzVgOP0ZEJe4a__N-31" target="Vf78qzVgOP0ZEJe4a__N-32">
          <mxGeometry relative="1" as="geometry" />
        </mxCell>
        <mxCell id="Vf78qzVgOP0ZEJe4a__N-31" value="Motoro Enable" style="rounded=1;whiteSpace=wrap;html=1;" vertex="1" parent="1">
          <mxGeometry x="1278.75" y="1530" width="120" height="60" as="geometry" />
        </mxCell>
        <mxCell id="Vf78qzVgOP0ZEJe4a__N-37" style="edgeStyle=orthogonalEdgeStyle;rounded=0;orthogonalLoop=1;jettySize=auto;html=1;exitX=1;exitY=0.5;exitDx=0;exitDy=0;entryX=0;entryY=0.5;entryDx=0;entryDy=0;" edge="1" parent="1" source="Vf78qzVgOP0ZEJe4a__N-32" target="Vf78qzVgOP0ZEJe4a__N-34">
          <mxGeometry relative="1" as="geometry" />
        </mxCell>
        <mxCell id="Vf78qzVgOP0ZEJe4a__N-32" value="Motoro Enable&amp;nbsp;ack" style="rounded=1;whiteSpace=wrap;html=1;" vertex="1" parent="1">
          <mxGeometry x="1278.75" y="1620" width="120" height="60" as="geometry" />
        </mxCell>
        <mxCell id="Vf78qzVgOP0ZEJe4a__N-33" style="edgeStyle=orthogonalEdgeStyle;rounded=0;orthogonalLoop=1;jettySize=auto;html=1;exitX=0.5;exitY=1;exitDx=0;exitDy=0;entryX=0.5;entryY=0;entryDx=0;entryDy=0;" edge="1" parent="1" source="Vf78qzVgOP0ZEJe4a__N-34" target="Vf78qzVgOP0ZEJe4a__N-35">
          <mxGeometry relative="1" as="geometry" />
        </mxCell>
        <mxCell id="Vf78qzVgOP0ZEJe4a__N-34" value="Origin Pos" style="rounded=1;whiteSpace=wrap;html=1;" vertex="1" parent="1">
          <mxGeometry x="1438.75" y="1530" width="120" height="60" as="geometry" />
        </mxCell>
        <mxCell id="Vf78qzVgOP0ZEJe4a__N-42" style="edgeStyle=orthogonalEdgeStyle;rounded=0;orthogonalLoop=1;jettySize=auto;html=1;exitX=1;exitY=0.5;exitDx=0;exitDy=0;entryX=0;entryY=0.5;entryDx=0;entryDy=0;" edge="1" parent="1" source="Vf78qzVgOP0ZEJe4a__N-35" target="Vf78qzVgOP0ZEJe4a__N-40">
          <mxGeometry relative="1" as="geometry" />
        </mxCell>
        <mxCell id="Vf78qzVgOP0ZEJe4a__N-35" value="Origin Pos ack" style="rounded=1;whiteSpace=wrap;html=1;" vertex="1" parent="1">
          <mxGeometry x="1438.75" y="1620" width="120" height="60" as="geometry" />
        </mxCell>
        <mxCell id="Vf78qzVgOP0ZEJe4a__N-39" style="edgeStyle=orthogonalEdgeStyle;rounded=0;orthogonalLoop=1;jettySize=auto;html=1;exitX=0.5;exitY=1;exitDx=0;exitDy=0;entryX=0.5;entryY=0;entryDx=0;entryDy=0;" edge="1" parent="1" source="Vf78qzVgOP0ZEJe4a__N-40" target="Vf78qzVgOP0ZEJe4a__N-41">
          <mxGeometry relative="1" as="geometry" />
        </mxCell>
        <mxCell id="Vf78qzVgOP0ZEJe4a__N-40" value="Motor Disable" style="rounded=1;whiteSpace=wrap;html=1;" vertex="1" parent="1">
          <mxGeometry x="1598.75" y="1530" width="120" height="60" as="geometry" />
        </mxCell>
        <mxCell id="Vf78qzVgOP0ZEJe4a__N-43" style="edgeStyle=orthogonalEdgeStyle;rounded=0;orthogonalLoop=1;jettySize=auto;html=1;exitX=0.5;exitY=1;exitDx=0;exitDy=0;entryX=0.5;entryY=0;entryDx=0;entryDy=0;" edge="1" parent="1" source="Vf78qzVgOP0ZEJe4a__N-41" target="Vf78qzVgOP0ZEJe4a__N-27">
          <mxGeometry relative="1" as="geometry" />
        </mxCell>
        <mxCell id="Vf78qzVgOP0ZEJe4a__N-41" value="Motor Disable&amp;nbsp;ack" style="rounded=1;whiteSpace=wrap;html=1;" vertex="1" parent="1">
          <mxGeometry x="1598.75" y="1620" width="120" height="60" as="geometry" />
        </mxCell>
        <mxCell id="Vf78qzVgOP0ZEJe4a__N-44" style="edgeStyle=orthogonalEdgeStyle;rounded=0;orthogonalLoop=1;jettySize=auto;html=1;exitX=0.5;exitY=1;exitDx=0;exitDy=0;entryX=0.5;entryY=0;entryDx=0;entryDy=0;" edge="1" parent="1" source="Vf78qzVgOP0ZEJe4a__N-45" target="Vf78qzVgOP0ZEJe4a__N-46">
          <mxGeometry relative="1" as="geometry" />
        </mxCell>
        <mxCell id="Vf78qzVgOP0ZEJe4a__N-45" value="Motor Calib" style="rounded=1;whiteSpace=wrap;html=1;" vertex="1" parent="1">
          <mxGeometry x="1198.75" y="1960" width="120" height="60" as="geometry" />
        </mxCell>
        <mxCell id="Vf78qzVgOP0ZEJe4a__N-54" style="edgeStyle=orthogonalEdgeStyle;rounded=0;orthogonalLoop=1;jettySize=auto;html=1;exitX=1;exitY=0.5;exitDx=0;exitDy=0;entryX=0;entryY=0.5;entryDx=0;entryDy=0;" edge="1" parent="1" source="Vf78qzVgOP0ZEJe4a__N-46" target="Vf78qzVgOP0ZEJe4a__N-48">
          <mxGeometry relative="1" as="geometry" />
        </mxCell>
        <mxCell id="Vf78qzVgOP0ZEJe4a__N-68" style="edgeStyle=orthogonalEdgeStyle;rounded=0;orthogonalLoop=1;jettySize=auto;html=1;exitX=0;exitY=0.5;exitDx=0;exitDy=0;entryX=0.5;entryY=0;entryDx=0;entryDy=0;fillColor=#dae8fc;strokeColor=#6c8ebf;" edge="1" parent="1" source="Vf78qzVgOP0ZEJe4a__N-46" target="Vf78qzVgOP0ZEJe4a__N-8">
          <mxGeometry relative="1" as="geometry">
            <Array as="points">
              <mxPoint x="686.25" y="2080" />
              <mxPoint x="686.25" y="1590" />
              <mxPoint x="819.25" y="1590" />
            </Array>
          </mxGeometry>
        </mxCell>
        <mxCell id="Vf78qzVgOP0ZEJe4a__N-46" value="Motor Calib&amp;nbsp;ack" style="rounded=1;whiteSpace=wrap;html=1;" vertex="1" parent="1">
          <mxGeometry x="1198.75" y="2050" width="120" height="60" as="geometry" />
        </mxCell>
        <mxCell id="Vf78qzVgOP0ZEJe4a__N-47" style="edgeStyle=orthogonalEdgeStyle;rounded=0;orthogonalLoop=1;jettySize=auto;html=1;exitX=0.5;exitY=1;exitDx=0;exitDy=0;entryX=0.5;entryY=0;entryDx=0;entryDy=0;" edge="1" parent="1" source="Vf78qzVgOP0ZEJe4a__N-48" target="Vf78qzVgOP0ZEJe4a__N-49">
          <mxGeometry relative="1" as="geometry" />
        </mxCell>
        <mxCell id="Vf78qzVgOP0ZEJe4a__N-48" value="Pos Limit Calb" style="rounded=1;whiteSpace=wrap;html=1;" vertex="1" parent="1">
          <mxGeometry x="1368.75" y="1960" width="120" height="60" as="geometry" />
        </mxCell>
        <mxCell id="Vf78qzVgOP0ZEJe4a__N-55" style="edgeStyle=orthogonalEdgeStyle;rounded=0;orthogonalLoop=1;jettySize=auto;html=1;exitX=1;exitY=0.5;exitDx=0;exitDy=0;entryX=0;entryY=0.5;entryDx=0;entryDy=0;" edge="1" parent="1" source="Vf78qzVgOP0ZEJe4a__N-49" target="Vf78qzVgOP0ZEJe4a__N-51">
          <mxGeometry relative="1" as="geometry" />
        </mxCell>
        <mxCell id="Vf78qzVgOP0ZEJe4a__N-49" value="Pos Limit Calb&amp;nbsp;ack" style="rounded=1;whiteSpace=wrap;html=1;" vertex="1" parent="1">
          <mxGeometry x="1368.75" y="2050" width="120" height="60" as="geometry" />
        </mxCell>
        <mxCell id="Vf78qzVgOP0ZEJe4a__N-50" style="edgeStyle=orthogonalEdgeStyle;rounded=0;orthogonalLoop=1;jettySize=auto;html=1;exitX=0.5;exitY=1;exitDx=0;exitDy=0;entryX=0.5;entryY=0;entryDx=0;entryDy=0;" edge="1" parent="1" source="Vf78qzVgOP0ZEJe4a__N-51" target="Vf78qzVgOP0ZEJe4a__N-52">
          <mxGeometry relative="1" as="geometry" />
        </mxCell>
        <mxCell id="Vf78qzVgOP0ZEJe4a__N-51" value="Cogging Calib" style="rounded=1;whiteSpace=wrap;html=1;" vertex="1" parent="1">
          <mxGeometry x="1538.75" y="1960" width="120" height="60" as="geometry" />
        </mxCell>
        <mxCell id="Vf78qzVgOP0ZEJe4a__N-59" style="edgeStyle=orthogonalEdgeStyle;rounded=0;orthogonalLoop=1;jettySize=auto;html=1;exitX=1;exitY=0.5;exitDx=0;exitDy=0;entryX=1;entryY=0.5;entryDx=0;entryDy=0;" edge="1" parent="1" source="Vf78qzVgOP0ZEJe4a__N-52" target="Vf78qzVgOP0ZEJe4a__N-57">
          <mxGeometry relative="1" as="geometry" />
        </mxCell>
        <mxCell id="Vf78qzVgOP0ZEJe4a__N-52" value="Cogging Calib&amp;nbsp;ack" style="rounded=1;whiteSpace=wrap;html=1;" vertex="1" parent="1">
          <mxGeometry x="1538.75" y="2050" width="120" height="60" as="geometry" />
        </mxCell>
        <mxCell id="Vf78qzVgOP0ZEJe4a__N-57" value="Ready" style="rounded=1;whiteSpace=wrap;html=1;" vertex="1" parent="1">
          <mxGeometry x="1368.75" y="2160" width="120" height="60" as="geometry" />
        </mxCell>
      </root>
    </mxGraphModel>
  </diagram>
</mxfile>
